<svg 
 xmlns="http://www.w3.org/2000/svg"
 xmlns:xlink="http://www.w3.org/1999/xlink"
 width="18px" height="18px">
<path fill-rule="evenodd"  fill="rgb(225, 33, 45)"
 d="M17.515,2.962 C17.499,2.985 17.457,3.007 17.438,3.027 L12.352,8.043 L12.352,16.281 C12.352,17.228 11.621,18.000 10.665,18.000 C10.222,18.000 9.848,17.833 9.525,17.530 C9.502,17.514 9.480,17.497 9.460,17.477 L8.044,16.088 C7.960,16.006 7.911,15.892 7.911,15.775 C7.910,15.660 7.956,15.546 8.039,15.463 L8.642,14.859 C8.808,14.694 9.091,14.693 9.258,14.857 L10.551,16.189 C10.571,16.205 10.579,16.223 10.601,16.243 C10.589,12.707 10.585,8.498 10.585,7.657 L10.585,7.507 C10.585,7.390 10.690,7.272 10.774,7.188 L16.210,1.830 C16.224,1.810 16.240,1.759 16.258,1.759 L1.754,1.759 C1.771,1.759 1.768,1.810 1.781,1.828 L7.140,7.196 C7.224,7.280 7.232,7.390 7.232,7.507 L7.232,11.031 C7.232,11.036 7.244,11.041 7.243,11.046 C7.233,11.524 6.858,11.902 6.386,11.902 C5.906,11.902 5.464,11.513 5.464,11.035 L5.464,8.043 L0.476,3.019 C0.457,2.999 0.490,2.969 0.474,2.947 C0.168,2.626 -0.000,2.192 -0.000,1.751 C-0.000,0.804 0.775,-0.000 1.727,-0.000 L16.284,-0.000 C16.745,-0.000 17.178,0.211 17.505,0.536 C17.832,0.861 18.000,1.310 18.000,1.768 C18.000,2.208 17.820,2.641 17.515,2.962 ZM6.451,12.254 C6.980,12.254 7.411,12.682 7.411,13.208 C7.411,13.735 6.980,14.163 6.451,14.163 C5.923,14.163 5.492,13.735 5.492,13.208 C5.492,12.682 5.923,12.254 6.451,12.254 Z"/>
</svg>