<svg 
 xmlns="http://www.w3.org/2000/svg"
 xmlns:xlink="http://www.w3.org/1999/xlink"
 width="45px" height="45px">
<path fill-rule="evenodd"  fill="rgb(185, 29, 34)"
 d="M-0.000,22.503 C-0.000,10.073 10.074,-0.000 22.503,-0.000 C34.928,-0.000 45.000,10.074 45.000,22.500 C45.000,34.927 34.928,45.001 22.503,45.001 C10.079,45.003 0.005,34.932 -0.000,22.506 L-0.000,22.503 ZM22.500,42.106 C29.561,42.193 36.122,38.476 39.678,32.374 C43.234,26.273 43.234,18.731 39.678,12.629 C36.122,6.528 29.561,2.810 22.500,2.897 C11.769,3.030 3.139,11.768 3.139,22.502 C3.139,33.236 11.769,41.974 22.500,42.106 L22.500,42.106 ZM9.508,11.122 L21.746,11.122 L21.746,14.708 L13.058,14.708 L13.058,18.094 L21.746,18.094 L21.746,27.878 L13.058,27.878 L13.058,32.022 L21.746,32.022 L21.746,35.217 L9.508,35.217 L9.508,24.259 L18.369,24.259 L18.369,21.290 L9.508,21.290 L9.508,11.122 ZM35.489,11.122 L35.489,21.287 L26.628,21.287 L26.628,24.259 L35.489,24.259 L35.489,35.217 L23.254,35.217 L23.254,32.022 L31.936,32.022 L31.936,27.878 L23.254,27.878 L23.254,18.094 L31.936,18.094 L31.936,14.708 L23.254,14.708 L23.254,11.119 L35.489,11.119 L35.489,11.122 Z"/>
</svg>