<svg 
 xmlns="http://www.w3.org/2000/svg"
 xmlns:xlink="http://www.w3.org/1999/xlink"
 width="45px" height="45px">
<path fill-rule="evenodd"  fill="rgb(0, 156, 150)"
 d="M21.009,13.812 C20.527,13.812 20.125,13.491 20.045,13.009 C19.885,11.483 20.045,9.877 20.045,8.271 L20.045,1.606 C20.045,1.365 19.965,-0.000 20.125,-0.000 L25.024,-0.000 C25.185,-0.000 25.104,2.891 25.104,3.212 L25.104,11.563 C25.104,11.885 25.265,12.527 25.104,12.768 C25.104,12.928 25.024,13.169 24.943,13.330 C24.703,13.812 23.900,13.731 23.498,13.731 C22.615,13.812 21.892,13.812 21.009,13.812 L21.009,13.812 ZM28.156,0.482 C37.471,2.891 44.537,11.242 44.939,21.119 C45.662,32.763 36.989,43.202 25.506,44.808 C12.818,46.494 0.853,36.858 0.050,23.930 C-0.673,13.169 6.554,3.132 16.994,0.562 L16.994,12.928 C16.994,14.294 16.913,15.016 18.439,15.016 C19.242,15.016 20.045,14.936 20.848,15.016 C22.213,15.097 21.972,16.301 21.972,17.425 L21.972,22.565 C21.491,21.601 19.724,22.003 18.921,22.003 L16.030,22.003 C15.388,21.922 15.147,21.601 15.066,21.039 L15.066,6.424 C8.803,9.235 4.707,15.659 4.707,22.565 C4.707,31.318 11.372,39.107 20.125,40.311 L20.125,30.916 C20.125,30.515 20.286,30.033 19.804,30.033 L17.395,30.033 C16.673,30.033 15.227,30.274 15.066,29.230 C14.986,28.667 15.066,28.025 15.066,27.463 L15.066,22.163 C15.066,22.565 15.227,22.966 15.709,23.046 C16.833,23.287 18.279,23.046 19.403,23.046 C20.206,23.046 21.892,22.645 22.133,23.769 C22.294,24.492 22.133,25.215 22.133,25.937 L22.133,29.471 C22.133,29.792 22.133,29.792 22.374,29.952 C22.534,30.033 22.936,29.952 23.177,29.952 L23.177,25.375 C23.177,24.572 22.856,22.966 24.140,22.966 C25.345,22.806 26.710,22.966 27.915,22.966 C28.718,22.966 30.243,23.287 30.163,22.003 L30.163,26.740 C30.163,27.303 29.922,28.507 30.163,28.989 C30.886,30.595 25.907,29.792 25.425,29.952 C25.104,30.033 25.265,29.872 25.185,30.274 C25.104,30.434 25.185,30.755 25.185,30.916 L25.185,40.231 C33.697,39.027 40.442,31.318 40.442,22.484 C40.442,15.579 36.346,9.154 30.163,6.264 L30.163,19.112 C30.163,19.353 30.003,20.718 30.163,20.878 C30.163,21.360 29.922,21.842 29.360,21.842 C28.156,22.083 26.630,21.842 25.425,21.842 C24.622,21.842 23.498,21.521 23.097,22.404 L23.097,17.827 C23.097,17.024 22.695,15.177 23.739,14.936 C24.703,14.615 27.995,15.579 28.156,14.133 C28.397,12.045 28.156,9.636 28.156,7.468 L28.156,0.482 Z"/>
</svg>