<svg xmlns="http://www.w3.org/2000/svg" width="39" height="39" viewBox="0 0 39 39">
  <defs>
    <style>
      .cls-1 {
        fill: #d9d9d9;
        fill-rule: evenodd;
      }
    </style>
  </defs>
  <path id="我的页收货地址管理" class="cls-1" d="M30.846,36.833V32.5H26.538l2.154-2.167H33V39H5V30.333H9.307L11.461,32.5H7.153v4.333H30.846ZM27.83,22.1A11.985,11.985,0,0,0,19,2.166,11.985,11.985,0,0,0,10.169,22.1L19,30.983Zm0.861,2.166L19.215,33.8,9.307,24.266A14.265,14.265,0,0,1,5,14.083a14,14,0,1,1,28,0,13.856,13.856,0,0,1-3.662,9.534ZM19,19.5a5.417,5.417,0,1,1,5.385-5.417A5.348,5.348,0,0,1,19,19.5h0Zm0-2.167a3.323,3.323,0,0,0,3.231-3.25,3.231,3.231,0,1,0-6.461,0A3.322,3.322,0,0,0,19,17.333h0Zm0,0"/>
</svg>
