<svg 
 xmlns="http://www.w3.org/2000/svg"
 xmlns:xlink="http://www.w3.org/1999/xlink"
 width="42px" height="35px">
<path fill-rule="evenodd"  fill="rgb(223, 7, 21)"
 d="M41.809,10.146 L38.807,20.177 C38.296,21.893 36.829,23.052 35.158,23.052 L16.072,23.052 C15.566,23.052 15.157,22.639 15.157,22.128 C15.157,21.617 15.566,21.204 16.072,21.204 L35.158,21.204 C36.010,21.204 36.778,20.573 37.057,19.637 L40.058,9.606 C40.292,8.820 40.155,7.977 39.689,7.340 C39.302,6.812 38.756,6.525 38.160,6.525 L26.169,6.525 C25.663,6.525 25.254,6.111 25.254,5.601 C25.254,5.090 25.663,4.677 26.169,4.677 L38.160,4.677 C39.336,4.677 40.428,5.245 41.156,6.243 C41.968,7.345 42.213,8.803 41.809,10.146 ZM20.706,6.519 L16.993,6.519 L16.993,10.266 C16.993,10.777 16.584,11.190 16.078,11.190 C15.572,11.190 15.162,10.777 15.162,10.266 L15.162,6.519 L11.450,6.519 C10.944,6.519 10.535,6.106 10.535,5.595 C10.535,5.084 10.944,4.671 11.450,4.671 L15.162,4.671 L15.162,0.924 C15.162,0.413 15.572,-0.000 16.078,-0.000 C16.584,-0.000 16.993,0.413 16.993,0.924 L16.993,4.671 L20.706,4.671 C21.212,4.671 21.621,5.084 21.621,5.595 C21.621,6.106 21.212,6.519 20.706,6.519 ZM13.883,26.403 L34.373,26.403 C36.721,26.403 38.637,28.331 38.637,30.702 C38.637,33.071 36.727,35.000 34.379,35.000 C32.031,35.000 30.121,33.071 30.121,30.702 C30.121,29.789 30.405,28.946 30.882,28.251 L17.090,28.251 C17.567,28.946 17.852,29.795 17.852,30.702 C17.852,33.071 15.941,35.000 13.593,35.000 C11.245,35.000 9.335,33.071 9.335,30.702 C9.335,29.238 10.063,27.941 11.171,27.166 C10.256,26.351 9.562,25.123 9.273,23.660 L5.441,4.424 C5.145,2.961 4.230,1.934 3.212,1.934 L0.915,1.934 C0.409,1.934 -0.000,1.520 -0.000,1.010 C-0.000,0.499 0.409,0.086 0.915,0.086 L3.212,0.086 C5.117,0.086 6.771,1.721 7.237,4.063 L11.069,23.299 C11.433,25.129 12.587,26.403 13.883,26.403 ZM34.373,33.146 C35.715,33.146 36.801,32.050 36.801,30.696 C36.801,29.341 35.715,28.246 34.373,28.246 C33.031,28.246 31.945,29.341 31.945,30.696 C31.945,32.050 33.037,33.146 34.373,33.146 ZM11.166,30.696 C11.166,32.050 12.257,33.146 13.593,33.146 C14.929,33.146 16.021,32.050 16.021,30.696 C16.021,29.341 14.935,28.246 13.593,28.246 C12.252,28.246 11.166,29.341 11.166,30.696 Z"/>
</svg>