<svg 
 xmlns="http://www.w3.org/2000/svg"
 xmlns:xlink="http://www.w3.org/1999/xlink"
 width="28px" height="28px">
<path fill-rule="evenodd"  fill="rgb(128, 128, 128)"
 d="M27.064,19.013 C24.375,25.511 17.166,29.527 10.215,27.449 C3.435,25.421 -1.115,18.565 0.239,11.496 C1.566,4.568 8.185,-0.776 15.364,0.092 C22.520,0.957 27.874,6.763 27.999,13.995 C27.970,15.694 27.718,17.433 27.064,19.013 ZM14.005,1.972 C7.528,2.083 1.850,7.354 1.964,13.995 C2.076,20.462 7.355,26.132 14.005,26.018 C20.655,25.903 25.932,20.634 26.046,13.995 C25.935,7.527 20.655,1.857 14.005,1.972 ZM13.880,19.221 C12.989,20.110 11.608,18.732 12.499,17.842 L16.353,13.995 L12.499,10.147 C11.608,9.257 12.989,7.878 13.880,8.768 L18.424,13.305 C18.800,13.681 18.800,14.308 18.424,14.684 L13.880,19.221 Z"/>
</svg>