<svg 
 xmlns="http://www.w3.org/2000/svg"
 xmlns:xlink="http://www.w3.org/1999/xlink"
 width="88px" height="88px">
<path fill-rule="evenodd"  fill="rgb(234, 234, 234)"
 d="M44.000,88.000 C19.699,88.000 0.000,68.301 0.000,44.000 C0.000,19.699 19.699,0.000 44.000,0.000 C68.301,0.000 88.000,19.699 88.000,44.000 C88.000,68.301 68.301,88.000 44.000,88.000 ZM51.111,50.727 L51.134,49.678 C58.176,44.474 58.176,34.388 58.176,30.986 C58.176,22.230 52.966,17.000 44.234,17.000 L43.766,17.000 C35.038,17.000 29.828,22.230 29.828,30.986 C29.828,40.027 32.151,46.156 36.924,49.666 L36.924,50.723 C28.973,51.849 21.000,55.178 21.000,60.265 C21.000,67.389 28.739,71.000 44.000,71.000 C59.261,71.000 67.000,67.389 67.000,60.265 C67.000,55.186 59.046,51.861 51.111,50.727 ZM44.000,67.625 C35.007,67.625 24.285,66.391 24.285,60.508 C24.285,58.680 30.074,55.305 38.802,54.387 C39.739,54.267 40.435,53.455 40.416,52.505 L40.416,48.725 C40.416,48.061 40.086,47.448 39.550,47.105 C35.298,44.405 33.228,39.067 33.228,30.789 C33.228,22.180 38.955,20.375 43.763,20.375 L44.238,20.375 C49.045,20.375 54.776,22.180 54.776,30.789 C54.776,39.213 52.790,44.397 48.527,47.105 C47.997,47.453 47.673,48.045 47.665,48.683 L47.588,52.463 C47.548,53.427 48.247,54.262 49.198,54.387 C57.927,55.301 63.715,58.680 63.715,60.508 C63.715,66.391 52.997,67.625 44.000,67.625 Z"/>
</svg>