<svg 
 xmlns="http://www.w3.org/2000/svg"
 xmlns:xlink="http://www.w3.org/1999/xlink"
 width="170px" height="170px">
<path fill-rule="evenodd"  fill="rgb(234, 234, 234)"
 d="M85.000,170.000 C38.056,170.000 -0.000,131.944 -0.000,85.000 C-0.000,38.056 38.056,-0.000 85.000,-0.000 C131.944,-0.000 170.000,38.056 170.000,85.000 C170.000,131.944 131.944,170.000 85.000,170.000 ZM98.737,97.995 L98.781,95.968 C112.385,85.916 112.385,66.431 112.385,59.859 C112.385,42.945 102.321,32.841 85.451,32.841 L84.548,32.841 C67.686,32.841 57.622,42.945 57.622,59.859 C57.622,77.325 62.109,89.165 71.329,95.946 L71.329,97.987 C55.971,100.163 40.567,106.593 40.567,116.422 C40.567,130.184 55.518,137.159 84.999,137.159 C114.480,137.159 129.431,130.184 129.431,116.422 C129.431,106.608 114.066,100.185 98.737,97.995 ZM84.999,130.639 C67.627,130.639 46.914,128.255 46.914,116.891 C46.914,113.359 58.096,106.840 74.957,105.066 C76.769,104.834 78.113,103.266 78.075,101.430 L78.075,94.128 C78.075,92.846 77.439,91.661 76.402,90.998 C68.189,85.782 64.191,75.469 64.191,59.479 C64.191,42.848 75.254,39.361 84.541,39.361 L85.459,39.361 C94.744,39.361 105.817,42.848 105.817,59.479 C105.817,75.752 101.980,85.767 93.746,90.998 C92.720,91.671 92.095,92.814 92.079,94.046 L91.931,101.348 C91.854,103.211 93.203,104.824 95.041,105.066 C111.903,106.832 123.086,113.359 123.086,116.891 C123.086,128.255 102.380,130.639 84.999,130.639 Z"/>
</svg>