<svg 
 xmlns="http://www.w3.org/2000/svg"
 xmlns:xlink="http://www.w3.org/1999/xlink"
 width="50px" height="50px">
<path fill-rule="evenodd"  fill="rgb(255, 255, 255)"
 d="M30.832,39.279 C30.644,39.466 30.399,39.562 30.154,39.562 C29.908,39.562 29.663,39.466 29.476,39.279 L16.558,26.360 C16.197,25.995 15.995,25.514 15.995,25.000 C15.995,24.485 16.192,24.005 16.558,23.639 L29.476,10.721 C29.851,10.346 30.461,10.346 30.836,10.721 C31.211,11.096 31.211,11.707 30.836,12.082 L17.918,25.000 L30.832,37.918 C31.207,38.293 31.207,38.903 30.832,39.279 ZM48.034,34.731 C46.774,37.706 44.976,40.384 42.678,42.678 C40.380,44.971 37.706,46.774 34.731,48.033 C31.649,49.336 28.375,50.000 25.000,50.000 C21.625,50.000 18.351,49.336 15.269,48.033 C12.293,46.774 9.615,44.976 7.322,42.678 C5.029,40.380 3.226,37.706 1.966,34.731 C0.663,31.649 0.000,28.375 0.000,25.000 C0.000,21.625 0.663,18.351 1.966,15.269 C3.226,12.293 5.024,9.615 7.322,7.322 C9.620,5.029 12.293,3.226 15.269,1.966 C18.351,0.663 21.625,0.000 25.000,0.000 C29.370,0.000 33.673,1.144 37.437,3.308 C37.899,3.572 38.058,4.159 37.793,4.620 C37.529,5.082 36.942,5.240 36.480,4.976 C33.005,2.981 29.033,1.923 25.000,1.923 C21.884,1.923 18.860,2.534 16.019,3.736 C13.269,4.899 10.803,6.562 8.683,8.682 C6.563,10.803 4.899,13.269 3.736,16.019 C2.534,18.861 1.923,21.885 1.923,25.000 C1.923,28.115 2.534,31.139 3.736,33.981 C4.899,36.731 6.563,39.197 8.683,41.317 C10.803,43.437 13.269,45.101 16.019,46.264 C18.860,47.466 21.884,48.077 25.000,48.077 C28.115,48.077 31.134,47.466 33.981,46.264 C36.731,45.101 39.197,43.437 41.317,41.317 C43.437,39.197 45.101,36.731 46.264,33.981 C47.466,31.139 48.076,28.115 48.076,25.000 C48.076,19.053 45.817,13.404 41.721,9.096 C41.356,8.712 41.370,8.101 41.755,7.736 C42.139,7.370 42.750,7.385 43.115,7.769 C47.552,12.437 50.000,18.553 50.000,25.000 C50.000,28.375 49.336,31.649 48.034,34.731 Z"/>
</svg>