<svg 
 xmlns="http://www.w3.org/2000/svg"
 xmlns:xlink="http://www.w3.org/1999/xlink"
 width="64px" height="54px">
<path fill-rule="evenodd"  fill="rgb(128, 128, 128)"
 d="M58.880,54.000 L5.119,54.000 C2.293,53.996 0.003,51.696 -0.001,48.857 L-0.001,10.289 C0.002,7.450 2.292,5.149 5.119,5.146 L34.559,5.146 L34.559,5.142 C34.563,2.303 36.853,0.003 39.679,-0.000 L47.356,-0.000 C50.184,0.001 52.477,2.303 52.479,5.143 L52.479,5.146 L58.880,5.146 C61.706,5.149 63.996,7.450 63.999,10.289 L63.999,48.857 C63.996,51.696 61.706,53.996 58.880,54.000 ZM13.440,12.856 C11.672,12.856 10.239,14.295 10.239,16.069 C10.239,17.845 11.672,19.284 13.440,19.284 C14.288,19.284 15.102,18.945 15.702,18.343 C16.302,17.740 16.639,16.922 16.639,16.069 C16.639,14.295 15.207,12.856 13.440,12.856 ZM34.559,15.433 C26.079,15.433 19.202,22.340 19.202,30.857 C19.202,39.374 26.076,46.282 34.559,46.282 C43.042,46.282 49.917,39.374 49.917,30.857 C49.917,22.340 43.039,15.433 34.559,15.433 ZM34.559,41.782 C28.560,41.782 23.680,36.880 23.680,30.854 C23.680,24.829 28.559,19.926 34.559,19.926 C40.559,19.926 45.440,24.829 45.440,30.854 C45.440,36.880 40.559,41.782 34.559,41.782 ZM34.559,22.498 C29.964,22.498 26.239,26.239 26.239,30.854 C26.239,35.469 29.964,39.211 34.559,39.211 C39.152,39.206 42.874,35.467 42.879,30.854 C42.879,26.239 39.154,22.498 34.559,22.498 Z"/>
</svg>