<svg 
 xmlns="http://www.w3.org/2000/svg"
 xmlns:xlink="http://www.w3.org/1999/xlink"
 width="22px" height="22px">
<path fill-rule="evenodd"  fill="rgb(179, 179, 179)"
 d="M5.315,8.433 L10.999,14.117 L16.683,8.435 C16.848,8.270 17.117,8.270 17.282,8.435 C17.364,8.518 17.407,8.625 17.407,8.733 C17.407,8.841 17.364,8.949 17.282,9.031 L11.598,14.715 C11.437,14.874 11.225,14.963 10.999,14.963 C10.773,14.963 10.561,14.876 10.400,14.715 L4.716,9.031 C4.552,8.866 4.552,8.598 4.716,8.433 C4.881,8.268 5.150,8.268 5.315,8.433 ZM21.134,15.283 C20.580,16.592 19.788,17.770 18.777,18.779 C17.766,19.788 16.590,20.581 15.280,21.135 C13.925,21.709 12.484,22.001 10.999,22.001 C9.514,22.001 8.074,21.709 6.718,21.135 C5.408,20.581 4.230,19.790 3.221,18.779 C2.212,17.768 1.419,16.592 0.865,15.283 C0.291,13.927 -0.001,12.486 -0.001,11.001 C-0.001,9.078 0.502,7.185 1.454,5.528 C1.571,5.325 1.829,5.256 2.032,5.372 C2.235,5.488 2.305,5.746 2.188,5.949 C1.311,7.479 0.845,9.226 0.845,11.001 C0.845,12.372 1.114,13.702 1.643,14.952 C2.155,16.162 2.887,17.247 3.819,18.180 C4.752,19.113 5.837,19.845 7.048,20.357 C8.298,20.886 9.628,21.155 10.999,21.155 C12.370,21.155 13.700,20.886 14.951,20.357 C16.161,19.845 17.246,19.113 18.179,18.180 C19.111,17.247 19.843,16.162 20.355,14.952 C20.884,13.702 21.153,12.372 21.153,11.001 C21.153,9.630 20.884,8.302 20.355,7.049 C19.843,5.839 19.111,4.754 18.179,3.821 C17.246,2.888 16.161,2.156 14.951,1.645 C13.700,1.116 12.370,0.847 10.999,0.847 C8.382,0.847 5.897,1.841 4.001,3.644 C3.832,3.804 3.564,3.798 3.403,3.629 C3.242,3.460 3.248,3.191 3.418,3.030 C5.472,1.078 8.162,0.001 10.999,0.001 C12.484,0.001 13.925,0.293 15.280,0.866 C16.590,1.420 17.768,2.211 18.777,3.222 C19.786,4.234 20.580,5.410 21.134,6.719 C21.707,8.075 21.999,9.516 21.999,11.001 C21.999,12.486 21.707,13.927 21.134,15.283 Z"/>
</svg>