<svg 
 xmlns="http://www.w3.org/2000/svg"
 xmlns:xlink="http://www.w3.org/1999/xlink"
 width="47px" height="47px">
<path fill-rule="evenodd"  fill="rgb(255, 255, 255)"
 d="M41.576,47.000 L31.250,47.000 C28.260,47.000 25.825,44.566 25.825,41.575 L25.825,31.249 C25.825,28.259 28.260,25.825 31.250,25.825 L41.576,25.825 C44.566,25.825 47.000,28.259 47.000,31.249 L47.000,41.575 C47.000,44.566 44.566,47.000 41.576,47.000 ZM41.576,21.181 L31.250,21.181 C28.260,21.181 25.825,18.747 25.825,15.757 L25.825,5.424 C25.825,2.434 28.260,-0.000 31.250,-0.000 L36.416,-0.000 L36.416,0.041 C36.789,0.156 37.060,0.495 37.060,0.908 C37.060,0.940 37.048,0.969 37.045,1.000 L37.980,1.000 C37.977,0.968 37.962,0.941 37.962,0.908 C37.962,0.410 38.366,0.006 38.864,0.006 C39.362,0.006 39.765,0.410 39.765,0.908 C39.765,0.941 39.750,0.968 39.747,1.000 L40.687,1.000 C40.683,0.966 40.667,0.936 40.667,0.902 C40.667,0.407 41.067,-0.000 41.569,-0.000 C44.559,-0.000 46.993,2.434 46.993,5.424 C46.993,5.919 46.586,6.326 46.091,6.326 C46.059,6.326 46.031,6.311 46.000,6.307 L46.000,7.253 C46.031,7.249 46.059,7.234 46.091,7.234 C46.589,7.234 46.993,7.638 46.993,8.136 C46.993,8.634 46.589,9.038 46.091,9.038 C46.059,9.038 46.031,9.023 46.000,9.019 L46.000,9.965 C46.031,9.961 46.059,9.946 46.091,9.946 C46.593,9.946 47.000,10.353 47.000,10.848 L47.000,15.757 C47.000,18.747 44.566,21.181 41.576,21.181 ZM15.750,47.000 L5.424,47.000 C2.434,47.000 -0.000,44.566 -0.000,41.575 L-0.000,31.249 C-0.000,28.259 2.434,25.825 5.424,25.825 L15.757,25.825 C18.747,25.825 21.174,28.259 21.174,31.249 L21.174,41.575 C21.174,44.566 18.740,47.000 15.750,47.000 ZM15.750,21.181 L5.424,21.181 C2.434,21.181 -0.000,18.747 -0.000,15.757 L-0.000,5.431 C-0.000,2.441 2.434,0.006 5.424,0.006 L15.757,0.006 C18.747,0.006 21.174,2.441 21.174,5.431 L21.174,15.757 C21.174,18.747 18.740,21.181 15.750,21.181 Z"/>
</svg>