<svg 
 xmlns="http://www.w3.org/2000/svg"
 xmlns:xlink="http://www.w3.org/1999/xlink"
 width="21px" height="21px">
<path fill-rule="evenodd"  fill="rgb(178, 178, 178)"
 d="M19.250,17.500 L18.375,17.500 L18.375,15.750 L19.247,15.750 L19.250,15.747 L19.250,1.753 L19.247,1.750 L5.253,1.750 L5.250,1.753 L5.250,2.625 L3.500,2.625 L3.500,1.750 C3.503,0.784 4.284,0.003 5.250,-0.000 L19.250,-0.000 C20.215,0.003 20.997,0.784 21.000,1.750 L21.000,15.750 C20.997,16.715 20.215,17.497 19.250,17.500 ZM17.500,5.250 L17.500,19.250 C17.497,20.215 16.715,20.997 15.750,21.000 L1.750,21.000 C0.784,20.997 0.003,20.215 -0.000,19.250 L-0.000,5.250 C0.003,4.284 0.784,3.503 1.750,3.500 L15.750,3.500 C16.715,3.503 17.497,4.284 17.500,5.250 ZM1.753,5.250 L1.750,5.253 L1.750,19.247 L1.753,19.250 L15.747,19.250 L15.750,19.247 L15.750,5.253 L15.747,5.250 L1.753,5.250 ZM3.500,14.000 L14.000,14.000 L14.000,15.750 L3.500,15.750 L3.500,14.000 ZM3.500,8.750 L14.000,8.750 L14.000,10.500 L3.500,10.500 L3.500,8.750 Z"/>
</svg>