<svg 
 xmlns="http://www.w3.org/2000/svg"
 xmlns:xlink="http://www.w3.org/1999/xlink"
 width="40px" height="40px">
<path fill-rule="evenodd"  fill="rgb(192, 192, 192)"
 d="M12.031,13.179 L18.350,19.499 L12.031,25.819 C11.686,26.164 11.686,26.623 12.031,26.968 C12.376,27.313 12.835,27.313 13.180,26.968 L19.500,20.648 L25.819,26.968 C26.164,27.313 26.624,27.313 26.968,26.967 C27.313,26.623 27.313,26.164 26.968,25.819 L20.649,19.499 L26.968,13.179 C27.313,12.834 27.313,12.375 26.968,12.030 C26.624,11.686 26.164,11.686 25.819,12.030 L19.499,18.350 L13.180,12.031 C12.835,11.685 12.376,11.686 12.031,12.030 C11.686,12.375 11.686,12.834 12.031,13.179 L12.031,13.179 ZM5.711,33.288 C13.352,40.929 25.647,40.929 33.288,33.287 C40.929,25.646 40.930,13.351 33.288,5.710 C25.647,-1.931 13.352,-1.931 5.711,5.710 C-1.930,13.351 -1.930,25.647 5.711,33.288 L5.711,33.288 ZM32.139,6.859 C39.091,13.811 39.091,25.187 32.139,32.138 C25.187,39.090 13.812,39.091 6.860,32.139 C-0.092,25.187 -0.092,13.811 6.861,6.859 C13.812,-0.092 25.187,-0.092 32.139,6.859 L32.139,6.859 Z"/>
</svg>