<svg 
 xmlns="http://www.w3.org/2000/svg"
 xmlns:xlink="http://www.w3.org/1999/xlink"
 width="39px" height="39px">
<path fill-rule="evenodd"  fill="rgb(191, 191, 191)"
 d="M38.830,38.367 C38.910,38.230 38.959,38.077 38.973,37.919 C38.984,37.874 38.994,37.828 39.000,37.781 C39.000,37.744 38.982,37.714 38.979,37.678 C38.976,37.643 38.988,37.610 38.982,37.576 C38.259,33.362 36.261,30.847 33.642,30.847 L33.185,30.850 C31.026,30.846 29.444,30.871 27.809,28.549 C27.421,28.000 26.662,27.868 26.113,28.255 C25.563,28.642 25.430,29.400 25.816,29.951 C28.185,33.314 30.965,33.312 33.199,33.285 L33.642,33.284 C34.809,33.284 35.715,34.778 36.243,36.562 L14.625,36.562 C13.952,36.562 13.406,37.108 13.406,37.781 C13.406,38.454 13.952,39.000 14.625,39.000 L37.782,39.000 C37.851,38.999 37.920,38.993 37.987,38.982 C38.031,38.968 38.074,38.951 38.115,38.932 C38.268,38.893 38.411,38.820 38.532,38.718 C38.594,38.670 38.651,38.615 38.702,38.556 C38.751,38.497 38.793,38.434 38.830,38.367 L38.830,38.367 ZM11.185,28.556 C9.582,30.873 7.869,30.865 5.739,30.848 L5.289,30.847 C2.699,30.847 0.728,33.363 0.016,37.579 C0.016,37.613 0.017,37.647 0.020,37.682 C0.017,37.716 -0.000,37.746 -0.000,37.781 C0.006,37.827 0.016,37.873 0.028,37.918 C0.036,38.000 0.052,38.081 0.076,38.159 C0.101,38.232 0.132,38.302 0.171,38.368 C0.243,38.504 0.344,38.624 0.467,38.718 C0.526,38.767 0.590,38.809 0.657,38.845 C0.729,38.882 0.805,38.911 0.884,38.932 C0.927,38.952 0.971,38.969 1.016,38.983 C1.083,38.994 1.150,39.000 1.218,39.000 L7.313,39.000 C7.986,39.000 8.531,38.454 8.531,37.781 C8.531,37.108 7.986,36.563 7.313,36.563 L2.750,36.563 C3.266,34.778 4.150,33.285 5.289,33.285 L5.725,33.286 C8.006,33.312 10.853,33.317 13.190,29.944 C13.567,29.390 13.427,28.636 12.877,28.255 C12.326,27.873 11.570,28.008 11.185,28.556 L11.185,28.556 ZM8.531,21.938 L10.969,21.938 C11.158,21.934 11.344,21.885 11.512,21.796 C13.213,26.264 16.523,29.250 19.500,29.250 C20.046,29.247 20.587,29.159 21.106,28.989 C21.742,28.779 22.090,28.095 21.884,27.458 C21.679,26.820 20.997,26.467 20.358,26.668 C20.081,26.760 19.792,26.809 19.500,26.812 C16.801,26.812 12.797,22.060 12.797,15.495 C12.797,10.065 15.052,7.312 19.500,7.312 C21.785,7.312 23.511,8.053 24.627,9.513 C25.036,10.047 25.801,10.149 26.335,9.740 C26.870,9.331 26.971,8.567 26.563,8.032 C24.984,5.966 22.541,4.875 19.500,4.875 C14.720,4.875 11.623,7.500 10.674,12.188 L9.750,12.188 C9.750,5.536 12.848,2.437 19.500,2.437 C26.152,2.437 29.250,5.536 29.250,12.188 L28.031,12.188 C27.920,12.194 27.809,12.216 27.704,12.254 C27.528,12.187 27.338,12.165 27.152,12.189 C26.484,12.271 26.009,12.879 26.091,13.547 C26.168,14.193 26.205,14.844 26.203,15.495 C26.206,17.140 25.945,18.774 25.431,20.337 C25.329,20.644 25.354,20.978 25.499,21.267 C25.644,21.556 25.899,21.775 26.206,21.876 C26.329,21.917 26.458,21.938 26.588,21.938 C26.637,21.933 26.686,21.925 26.734,21.914 C26.772,21.924 26.810,21.932 26.849,21.938 L29.250,21.938 C29.250,22.610 28.704,23.156 28.031,23.156 L23.156,23.156 L23.156,21.938 C23.156,21.264 22.611,20.719 21.938,20.719 C21.264,20.719 20.719,21.264 20.719,21.938 L20.719,24.375 C20.719,24.698 20.847,25.008 21.076,25.237 C21.304,25.466 21.614,25.594 21.938,25.594 L28.031,25.594 C30.050,25.592 31.685,23.956 31.688,21.938 L31.688,21.713 C33.144,21.200 34.120,19.826 34.125,18.281 L34.125,15.844 C34.120,14.283 33.123,12.898 31.645,12.399 C31.666,12.330 31.680,12.259 31.688,12.187 C31.688,4.214 27.473,-0.000 19.500,-0.000 C11.527,-0.000 7.313,4.214 7.313,12.188 C7.320,12.259 7.334,12.330 7.355,12.399 C5.877,12.899 4.880,14.283 4.875,15.844 L4.875,18.281 C4.877,20.300 6.513,21.935 8.531,21.938 L8.531,21.938 ZM31.688,18.281 C31.687,18.954 31.142,19.500 30.469,19.500 L28.183,19.500 C28.486,18.186 28.639,16.843 28.641,15.495 C28.641,15.199 28.628,14.912 28.616,14.625 L30.469,14.625 C31.142,14.626 31.687,15.171 31.688,15.844 L31.688,18.281 ZM7.313,15.844 C7.313,15.171 7.858,14.626 8.531,14.625 L10.387,14.625 C10.374,14.912 10.359,15.197 10.359,15.495 C10.360,16.843 10.512,18.186 10.813,19.500 L8.531,19.500 C7.858,19.500 7.313,18.954 7.313,18.281 L7.313,15.844 Z"/>
</svg>