<svg 
 xmlns="http://www.w3.org/2000/svg"
 xmlns:xlink="http://www.w3.org/1999/xlink"
 width="38px" height="36px">
<path fill-rule="evenodd"  fill="rgb(225, 33, 45)"
 d="M29.497,36.000 C29.168,36.000 28.845,35.920 28.556,35.767 L18.998,30.771 L9.442,35.767 C8.605,36.190 7.581,35.996 6.965,35.297 C6.581,34.850 6.417,34.259 6.519,33.683 L8.350,23.084 L0.601,15.579 C0.053,15.051 -0.141,14.262 0.102,13.547 C0.337,12.834 0.964,12.314 1.720,12.206 L12.411,10.663 L17.193,1.027 C17.872,-0.344 20.124,-0.344 20.805,1.027 L25.590,10.663 L36.279,12.206 C37.036,12.315 37.656,12.830 37.896,13.547 C38.139,14.263 37.946,15.052 37.397,15.581 L29.651,23.087 L31.482,33.688 C31.582,34.262 31.419,34.850 31.036,35.295 C30.654,35.741 30.090,35.998 29.497,36.000 L29.497,36.000 Z"/>
</svg>