<svg 
 xmlns="http://www.w3.org/2000/svg"
 xmlns:xlink="http://www.w3.org/1999/xlink"
 width="38px" height="36px">
<path fill-rule="evenodd"  fill="rgb(192, 192, 192)"
 d="M29.497,36.000 C29.168,36.000 28.845,35.920 28.556,35.767 L18.998,30.771 L9.442,35.767 C8.605,36.190 7.581,35.996 6.966,35.297 C6.581,34.850 6.418,34.259 6.519,33.683 L8.350,23.084 L0.601,15.579 C0.053,15.051 -0.141,14.262 0.103,13.547 C0.337,12.835 0.964,12.314 1.720,12.206 L12.411,10.663 L17.194,1.027 C17.873,-0.344 20.124,-0.344 20.805,1.027 L25.590,10.663 L36.279,12.206 C37.036,12.316 37.656,12.830 37.896,13.547 C38.139,14.263 37.946,15.052 37.398,15.582 L29.651,23.087 L31.482,33.688 C31.582,34.262 31.419,34.850 31.036,35.295 C30.654,35.741 30.091,35.998 29.497,36.000 L29.497,36.000 ZM2.772,14.408 L10.148,21.555 C10.616,22.010 10.830,22.659 10.720,23.296 L8.972,33.423 L18.058,28.625 C18.647,28.325 19.349,28.325 19.939,28.625 L29.017,33.369 L27.279,23.299 C27.167,22.658 27.382,22.005 27.856,21.550 L35.227,14.408 L25.049,12.939 C24.390,12.844 23.822,12.434 23.534,11.845 L18.998,2.711 L14.462,11.848 C14.173,12.434 13.605,12.842 12.947,12.937 L2.772,14.408 Z"/>
</svg>