<svg 
 xmlns="http://www.w3.org/2000/svg"
 xmlns:xlink="http://www.w3.org/1999/xlink"
 width="24px" height="33px">
<path fill-rule="evenodd"  fill="rgb(191, 191, 191)"
 d="M22.154,31.167 L22.154,27.500 L18.461,27.500 L20.308,25.667 L24.000,25.667 L24.000,33.000 L0.000,33.000 L0.000,25.667 L3.692,25.667 L5.538,27.500 L1.846,27.500 L1.846,31.167 L22.154,31.167 ZM19.569,18.700 C21.231,16.867 22.154,14.483 22.154,11.917 C22.154,6.417 17.538,1.833 12.000,1.833 C6.461,1.833 1.846,6.417 1.846,11.917 C1.846,14.483 2.769,16.867 4.431,18.700 L12.000,26.217 L19.569,18.700 ZM20.308,20.533 L12.185,28.600 L3.692,20.533 C1.477,18.333 0.000,15.400 0.000,11.917 C0.000,5.317 5.354,-0.000 12.000,-0.000 C18.646,-0.000 24.000,5.317 24.000,11.917 C24.000,15.033 22.892,17.783 20.861,19.983 L20.308,20.533 ZM12.000,16.500 C9.415,16.500 7.385,14.483 7.385,11.917 C7.385,9.350 9.415,7.333 12.000,7.333 C14.585,7.333 16.615,9.350 16.615,11.917 C16.615,14.483 14.585,16.500 12.000,16.500 L12.000,16.500 ZM12.000,14.667 C13.477,14.667 14.769,13.383 14.769,11.917 C14.769,10.450 13.477,9.167 12.000,9.167 C10.523,9.167 9.231,10.450 9.231,11.917 C9.231,13.383 10.523,14.667 12.000,14.667 L12.000,14.667 Z"/>
</svg>