<svg 
 xmlns="http://www.w3.org/2000/svg"
 xmlns:xlink="http://www.w3.org/1999/xlink"
 width="35px" height="48px">
<path fill-rule="evenodd"  fill="rgb(225, 33, 45)"
 d="M-0.002,47.999 L-0.002,37.333 L5.383,37.333 L8.075,40.000 L2.690,40.000 L2.690,45.332 L32.306,45.332 L32.306,40.000 L26.921,40.000 L29.613,37.333 L34.998,37.333 L34.998,47.999 L-0.002,47.999 ZM30.422,29.066 L29.613,29.866 L17.767,41.600 L5.383,29.866 C2.152,26.666 -0.002,22.399 -0.002,17.333 C-0.002,7.733 7.806,-0.001 17.498,-0.001 C27.190,-0.001 34.998,7.733 34.998,17.333 C34.998,21.866 33.382,25.866 30.422,29.066 ZM17.498,10.667 C13.729,10.667 10.768,13.599 10.768,17.333 C10.768,21.066 13.729,23.999 17.498,23.999 C21.267,23.999 24.228,21.066 24.228,17.333 C24.228,13.599 21.267,10.667 17.498,10.667 Z"/>
</svg>