<svg 
 xmlns="http://www.w3.org/2000/svg"
 xmlns:xlink="http://www.w3.org/1999/xlink"
 width="113px" height="126px">
<path fill-rule="evenodd"  fill="rgb(225, 33, 45)"
 d="M109.178,73.840 C107.059,73.840 105.356,72.130 105.356,70.002 L105.356,20.574 C105.356,18.273 104.720,15.947 103.495,13.867 C102.037,11.394 99.709,9.475 96.745,8.342 C95.018,7.666 92.899,7.666 90.657,7.666 L22.637,7.666 C20.444,7.678 18.668,7.690 17.039,8.109 C11.600,9.512 7.644,14.754 7.644,20.574 L7.644,101.637 C7.644,105.673 9.101,109.204 11.735,111.567 C13.977,113.646 16.782,114.803 19.930,114.988 C20.395,115.037 20.726,115.000 21.020,115.000 L22.037,114.988 L52.023,114.988 C54.130,114.988 55.845,116.698 55.845,118.826 C55.845,120.955 54.142,122.666 52.023,122.666 L22.024,122.666 C21.424,122.666 20.934,122.678 20.518,122.678 C20.064,122.678 19.685,122.666 19.317,122.629 C14.552,122.358 10.094,120.500 6.603,117.239 C2.364,113.437 -0.000,107.875 -0.000,101.624 L-0.000,20.574 C-0.000,11.321 6.370,2.953 15.140,0.676 C17.762,0.012 20.236,0.012 22.625,0.012 L90.681,-0.000 C93.401,-0.000 96.475,-0.000 99.526,1.194 C104.083,2.953 107.758,5.993 110.097,9.979 C111.996,13.240 113.000,16.894 113.000,20.574 L113.000,70.002 C113.000,72.118 111.297,73.840 109.178,73.840 ZM49.438,85.641 C51.508,85.641 53.260,87.400 53.260,89.480 C53.260,91.559 51.508,93.319 49.438,93.319 L29.043,93.319 C27.022,93.319 25.319,91.584 25.234,89.480 C25.234,87.400 26.973,85.641 29.043,85.641 L49.438,85.641 ZM80.110,35.560 L29.043,35.560 C27.009,35.560 25.307,33.826 25.221,31.721 C25.221,29.642 26.973,27.883 29.043,27.883 L80.110,27.883 C82.181,27.883 83.932,29.642 83.932,31.721 C83.932,33.801 82.181,35.560 80.110,35.560 ZM80.110,64.440 L29.043,64.440 C27.009,64.440 25.307,62.705 25.221,60.601 C25.221,58.521 26.973,56.761 29.043,56.761 L80.110,56.761 C82.181,56.761 83.932,58.521 83.932,60.601 C83.932,62.680 82.181,64.440 80.110,64.440 ZM66.661,108.614 L77.305,118.248 L104.695,89.541 C106.153,88.015 108.590,87.979 110.097,89.456 C111.616,90.932 111.652,93.356 110.183,94.881 L83.295,123.281 C81.422,125.200 79.535,126.000 77.501,126.000 C75.579,126.000 73.704,125.274 72.222,123.958 L61.528,114.286 C59.973,112.859 59.850,110.435 61.271,108.872 C62.692,107.309 65.105,107.199 66.661,108.614 Z"/>
</svg>