<svg 
 xmlns="http://www.w3.org/2000/svg"
 xmlns:xlink="http://www.w3.org/1999/xlink"
 width="50px" height="50px">
<path fill-rule="evenodd"  fill="rgb(225, 33, 45)"
 d="M24.999,50.000 C11.192,50.000 -0.000,38.806 -0.000,25.000 C-0.000,11.193 11.192,-0.000 24.999,-0.000 C38.807,-0.000 50.000,11.193 50.000,25.000 C50.000,38.806 38.807,50.000 24.999,50.000 ZM39.743,17.948 C38.961,17.238 37.529,18.463 37.337,18.669 L21.823,33.306 L14.604,25.776 C14.398,25.556 13.462,24.344 11.896,25.380 C10.944,26.439 12.237,27.832 12.442,28.052 L21.795,37.179 L38.240,21.813 C39.776,20.722 41.054,19.138 39.743,17.948 ZM21.795,37.179 L21.795,33.333 L21.823,33.306 L22.204,33.705 L21.795,37.179 Z"/>
</svg>