<svg 
 xmlns="http://www.w3.org/2000/svg"
 xmlns:xlink="http://www.w3.org/1999/xlink"
 width="47px" height="47px">
<path fill-rule="evenodd"  fill="rgb(255, 255, 255)"
 d="M41.576,47.000 L31.249,47.000 C28.259,47.000 25.825,44.565 25.825,41.576 L25.825,31.250 C25.825,28.259 28.259,25.825 31.249,25.825 L41.576,25.825 C44.566,25.825 47.000,28.259 47.000,31.250 L47.000,41.576 C47.000,44.565 44.566,47.000 41.576,47.000 ZM45.189,31.250 C45.189,29.256 43.569,27.635 41.576,27.635 L31.249,27.635 C29.256,27.635 27.635,29.256 27.635,31.250 L27.635,41.576 C27.635,43.569 29.256,45.189 31.249,45.189 L41.576,45.189 C43.569,45.189 45.189,43.569 45.189,41.576 L45.189,31.250 ZM41.576,21.181 L31.249,21.181 C28.259,21.181 25.825,18.746 25.825,15.757 L25.825,5.424 C25.825,2.434 28.259,-0.000 31.249,-0.000 L36.416,-0.000 L36.416,0.040 C36.789,0.155 37.060,0.495 37.060,0.908 C37.060,1.322 36.789,1.668 36.416,1.776 L36.416,1.817 L31.249,1.817 C29.256,1.817 27.635,3.437 27.635,5.430 L27.635,15.757 C27.635,17.750 29.256,19.371 31.249,19.371 L41.576,19.371 C43.569,19.371 45.189,17.750 45.189,15.757 L45.189,10.848 C45.189,10.353 45.590,9.946 46.091,9.946 C46.593,9.946 47.000,10.353 47.000,10.848 L47.000,15.757 C47.000,18.746 44.566,21.181 41.576,21.181 ZM46.091,9.038 C45.593,9.038 45.189,8.634 45.189,8.136 C45.189,7.638 45.593,7.234 46.091,7.234 C46.589,7.234 46.993,7.638 46.993,8.136 C46.993,8.634 46.589,9.038 46.091,9.038 ZM46.091,6.326 C45.596,6.326 45.189,5.926 45.189,5.424 C45.189,3.430 43.569,1.810 41.576,1.810 C41.074,1.810 40.667,1.396 40.667,0.902 C40.667,0.407 41.067,-0.000 41.569,-0.000 C44.559,-0.000 46.993,2.434 46.993,5.424 C46.993,5.919 46.586,6.326 46.091,6.326 ZM38.864,1.810 C38.365,1.810 37.962,1.406 37.962,0.908 C37.962,0.410 38.365,0.006 38.864,0.006 C39.362,0.006 39.765,0.410 39.765,0.908 C39.765,1.406 39.362,1.810 38.864,1.810 ZM15.750,47.000 L5.424,47.000 C2.434,47.000 -0.000,44.565 -0.000,41.576 L-0.000,31.250 C-0.000,28.259 2.434,25.825 5.424,25.825 L15.757,25.825 C18.747,25.825 21.174,28.259 21.174,31.250 L21.174,41.576 C21.174,44.565 18.740,47.000 15.750,47.000 ZM19.364,41.576 L19.364,31.250 C19.364,29.256 17.743,27.635 15.750,27.635 L5.424,27.635 C3.431,27.635 1.810,29.256 1.810,31.250 L1.810,41.576 C1.810,43.569 3.431,45.189 5.424,45.189 L15.757,45.189 C17.750,45.189 19.371,43.569 19.371,41.576 L19.364,41.576 ZM15.750,21.181 L5.424,21.181 C2.434,21.181 -0.000,18.746 -0.000,15.757 L-0.000,5.430 C-0.000,2.441 2.434,0.006 5.424,0.006 L15.757,0.006 C18.747,0.006 21.174,2.441 21.174,5.430 L21.174,15.757 C21.174,18.746 18.740,21.181 15.750,21.181 ZM19.364,15.757 L19.364,5.430 C19.364,3.437 17.743,1.817 15.750,1.817 L5.424,1.817 C3.431,1.817 1.810,3.437 1.810,5.430 L1.810,15.757 C1.810,17.750 3.431,19.371 5.424,19.371 L15.757,19.371 C17.750,19.371 19.371,17.750 19.371,15.757 L19.364,15.757 Z"/>
</svg>