<svg 
 xmlns="http://www.w3.org/2000/svg"
 xmlns:xlink="http://www.w3.org/1999/xlink"
 width="37px" height="30px">
<path fill-rule="evenodd"  fill="rgb(225, 33, 45)"
 d="M17.746,0.425 L11.100,4.601 C10.209,5.149 9.250,5.423 8.222,5.423 L4.933,5.423 C2.192,5.423 -0.000,7.613 -0.000,10.283 L-0.000,19.936 C-0.000,22.880 2.398,25.276 5.344,25.276 L9.181,25.276 C10.209,25.276 11.168,25.550 12.059,26.098 L17.815,29.589 C18.226,29.863 18.705,30.000 19.254,30.000 C20.761,30.000 21.994,28.768 21.994,27.261 L21.994,2.753 C21.994,2.274 21.857,1.726 21.583,1.315 C20.692,0.014 19.048,-0.397 17.746,0.425 L17.746,0.425 ZM19.185,27.261 L13.429,23.770 C12.127,23.017 10.688,22.538 9.181,22.538 L5.344,22.538 C3.905,22.538 2.741,21.374 2.741,19.936 L2.741,10.283 C2.741,9.120 3.700,8.161 4.864,8.161 L8.222,8.161 C9.798,8.161 11.237,7.750 12.607,6.929 L19.254,2.753 L19.254,27.261 L19.185,27.261 ZM35.630,13.638 L27.407,13.638 C26.654,13.638 26.037,14.254 26.037,15.007 C26.037,15.760 26.654,16.376 27.407,16.376 L35.630,16.376 C36.383,16.376 37.000,15.760 37.000,15.007 C37.000,14.254 36.383,13.638 35.630,13.638 L35.630,13.638 ZM35.081,25.276 L27.955,21.168 C27.270,20.758 26.448,21.031 26.105,21.648 C25.694,22.332 25.968,23.154 26.585,23.496 L33.711,27.604 C34.396,28.014 35.218,27.741 35.561,27.125 C35.972,26.508 35.766,25.687 35.081,25.276 L35.081,25.276 ZM27.887,8.846 L35.012,4.738 C35.698,4.327 35.903,3.506 35.492,2.890 C35.081,2.205 34.259,2.000 33.642,2.410 L26.516,6.518 C25.831,6.929 25.626,7.750 26.037,8.366 C26.448,8.983 27.270,9.256 27.887,8.846 L27.887,8.846 Z"/>
</svg>