<svg 
 xmlns="http://www.w3.org/2000/svg"
 xmlns:xlink="http://www.w3.org/1999/xlink"
 width="449px" height="374px">
<path fill-rule="evenodd"  fill="rgb(230, 42, 42)"
 d="M444.708,123.706 C441.483,135.662 436.478,146.136 431.527,154.656 C425.630,164.799 418.689,174.093 411.473,182.633 C405.860,189.277 399.933,195.641 393.896,201.847 C390.204,205.647 366.721,228.999 353.258,242.380 L353.255,242.389 L261.369,333.650 L224.130,373.590 L186.834,333.650 L92.673,240.133 L92.649,240.045 C78.968,226.445 57.849,205.433 54.361,201.847 C48.326,195.641 42.399,189.277 36.784,182.633 C29.568,174.093 22.627,164.799 16.730,154.656 C11.778,146.136 6.773,135.662 3.548,123.706 C1.717,116.924 0.045,108.126 0.045,98.156 C0.048,92.395 0.553,84.814 2.785,76.546 C7.090,59.409 15.988,43.177 29.481,29.779 C43.061,16.291 59.533,7.429 76.913,3.183 L76.898,3.175 C85.224,0.960 92.805,0.407 98.606,0.407 C108.644,0.407 117.502,2.068 124.333,3.884 C136.368,7.090 146.918,12.060 155.492,16.978 C165.706,22.833 175.064,29.728 183.663,36.895 C186.146,38.964 188.578,41.089 190.990,43.236 C190.834,43.110 190.681,42.985 190.526,42.860 C190.113,42.505 189.700,42.148 189.281,41.798 C187.797,40.562 186.281,39.336 184.731,38.131 C186.604,39.690 188.557,41.267 190.526,42.860 C190.909,43.187 191.292,43.512 191.675,43.839 C195.522,47.280 199.298,50.791 203.011,54.350 C205.153,56.404 214.266,65.413 224.112,75.169 L224.136,75.171 L224.139,75.175 C233.988,65.417 243.107,56.406 245.246,54.350 C248.959,50.791 252.734,47.280 256.585,43.839 C256.965,43.512 257.348,43.187 257.731,42.860 C259.699,41.267 261.653,39.690 263.526,38.131 C261.976,39.336 260.459,40.562 258.975,41.798 C258.556,42.148 258.143,42.505 257.731,42.860 C257.575,42.985 257.422,43.110 257.267,43.236 C259.678,41.089 262.111,38.964 264.594,36.895 C273.195,29.728 282.550,22.833 292.764,16.978 C301.342,12.060 311.888,7.090 323.927,3.884 C330.754,2.068 339.613,0.407 349.650,0.407 C355.454,0.407 363.036,0.960 371.362,3.175 L371.344,3.183 C388.726,7.429 405.196,16.291 418.779,29.779 C432.269,43.177 441.166,59.409 445.471,76.546 C447.703,84.814 448.212,92.395 448.212,98.156 C448.212,108.126 446.539,116.924 444.708,123.706 ZM241.218,213.725 C253.471,212.663 263.862,211.864 272.393,211.327 C273.454,215.599 274.254,217.723 274.791,217.723 C276.390,223.058 279.587,225.456 284.383,224.919 C288.642,223.320 290.241,219.597 289.179,213.725 C286.506,204.131 282.247,191.613 276.390,176.146 C275.316,172.423 274.254,168.950 273.192,165.752 C271.056,161.492 267.597,160.155 262.801,161.754 C258.005,163.890 256.668,167.351 258.804,172.148 C260.927,177.483 264.125,185.741 268.396,196.935 C266.260,197.472 263.063,197.734 258.804,197.734 C244.416,198.809 234.823,199.333 230.027,199.333 C238.021,187.078 248.137,164.952 260.403,132.970 C262.001,127.648 260.403,123.650 255.606,120.977 C250.810,119.377 247.338,121.251 245.215,126.573 C234.024,156.957 223.095,180.419 212.441,196.935 C209.244,202.269 208.170,206.529 209.244,209.728 C210.843,212.401 214.839,213.725 221.234,213.725 C224.432,213.725 231.089,213.725 241.218,213.725 ZM126.848,260.407 C130.570,264.130 134.842,264.130 139.638,260.407 C151.891,249.213 160.421,236.158 165.217,221.229 C169.476,208.436 171.875,188.185 172.412,160.462 C172.412,142.347 172.137,129.279 171.612,121.284 C171.075,116.487 168.415,113.826 163.619,113.288 C159.347,113.826 157.486,116.761 158.023,122.083 C158.023,127.955 158.023,137.550 158.023,150.868 C158.023,154.603 158.023,157.539 158.023,159.663 C159.622,199.641 150.292,229.224 130.046,248.414 C125.250,252.674 124.176,256.672 126.848,260.407 ZM202.050,112.983 C202.050,101.184 188.608,81.238 165.864,81.370 C140.453,81.518 129.062,100.990 129.062,112.184 L129.062,199.333 C129.062,205.205 131.460,208.403 136.256,208.928 C141.052,207.866 143.712,204.405 144.250,198.534 L144.250,119.380 C144.250,109.209 151.314,97.587 165.864,97.610 C179.581,97.632 186.862,111.096 186.862,118.580 L186.862,201.732 C186.862,207.604 189.260,210.802 194.056,211.327 C198.852,210.265 201.513,206.804 202.050,200.932 L202.050,112.983 ZM186.862,219.322 C182.590,216.661 178.868,216.924 175.671,220.122 C172.998,223.857 173.535,227.593 177.270,231.316 C177.794,232.915 179.131,234.789 181.266,236.913 C187.124,242.247 192.720,248.106 198.053,254.503 C201.250,258.226 204.710,258.501 208.445,255.302 C211.642,252.104 211.904,248.369 209.244,244.109 C207.645,242.510 206.046,240.910 204.448,239.311 C198.053,230.791 192.183,224.120 186.862,219.322 ZM313.464,154.697 C313.065,135.949 311.782,105.096 289.356,94.165 C269.405,84.441 242.817,94.591 242.817,94.591 C243.341,92.467 244.141,88.994 245.215,84.197 C246.276,78.875 244.678,75.402 240.419,73.803 C235.623,72.741 232.425,74.877 230.826,80.199 C222.833,106.322 214.839,125.249 206.846,136.968 C203.111,142.839 203.374,147.362 207.645,150.560 C212.441,152.159 216.963,150.035 221.234,144.164 C227.092,133.507 232.687,122.051 238.021,109.783 C238.021,109.783 265.283,98.468 282.960,109.913 C300.243,121.103 298.900,160.661 298.704,177.335 C298.508,194.008 296.471,218.616 291.816,230.484 C286.597,243.791 279.312,249.168 258.005,244.908 C252.671,244.371 249.474,246.770 248.412,252.104 C248.412,257.963 251.073,261.424 256.406,262.498 C288.380,267.821 307.092,251.895 310.020,222.610 C314.121,193.653 313.863,173.444 313.464,154.697 Z"/>
</svg>