<svg 
 xmlns="http://www.w3.org/2000/svg"
 xmlns:xlink="http://www.w3.org/1999/xlink"
 width="50px" height="43px">
<path fill-rule="evenodd"  fill="rgb(255, 255, 255)"
 d="M43.688,38.082 C43.018,38.215 42.444,38.527 42.033,38.996 L38.969,42.460 C38.659,42.810 38.217,43.000 37.768,43.000 C37.597,43.000 37.421,42.974 37.257,42.917 C36.650,42.714 36.220,42.168 36.164,41.521 L35.999,39.516 C35.936,38.793 35.323,38.229 34.603,38.229 L31.798,38.229 C29.441,38.229 27.185,37.213 25.606,35.430 L25.619,35.417 C25.404,35.214 25.271,34.929 25.271,34.611 C25.271,33.996 25.764,33.501 26.377,33.501 C26.762,33.501 27.103,33.704 27.299,34.002 C28.455,35.278 30.086,36.008 31.791,36.008 L34.596,36.008 C36.454,36.008 38.040,37.467 38.192,39.333 L38.242,39.935 L40.378,37.524 C41.117,36.686 42.115,36.128 43.265,35.906 C45.887,35.398 47.788,33.083 47.788,30.405 L47.788,27.252 C47.788,24.859 46.348,22.683 44.231,21.700 C42.987,28.279 37.219,33.273 30.313,33.273 L25.208,33.273 C23.427,33.273 21.917,34.669 21.771,36.452 L21.468,40.094 C21.405,40.906 20.862,41.591 20.097,41.851 C19.889,41.921 19.674,41.953 19.459,41.953 C18.890,41.953 18.341,41.718 17.949,41.274 L12.377,34.979 C11.492,33.977 10.279,33.305 8.863,33.032 C2.634,31.826 -0.000,26.332 -0.000,19.968 L-0.000,14.238 C-0.000,6.396 4.466,0.012 12.282,0.006 L22.403,0.006 C23.016,0.006 23.509,0.501 23.509,1.116 C23.509,1.732 23.016,2.227 22.403,2.227 L12.282,2.227 C5.686,2.227 2.211,7.614 2.211,14.238 L2.211,19.968 C2.211,25.272 4.088,29.853 9.281,30.855 C11.176,31.223 12.812,32.143 14.026,33.508 L19.307,39.466 L19.573,36.261 C19.813,33.342 22.289,31.052 25.208,31.052 L30.320,31.052 C36.909,31.052 42.273,25.672 42.273,19.047 L42.273,17.753 C42.273,17.137 42.766,16.643 43.379,16.643 C43.991,16.643 44.484,17.137 44.484,17.753 L44.484,19.047 C44.484,19.168 44.478,19.282 44.478,19.403 C47.770,20.570 50.000,23.679 50.000,27.252 L50.000,30.405 C50.000,34.148 47.346,37.372 43.688,38.082 ZM43.379,14.980 C42.768,14.980 42.273,14.483 42.273,13.870 C42.273,13.257 42.768,12.759 43.379,12.759 C43.989,12.759 44.484,13.257 44.484,13.870 C44.484,14.483 43.989,14.980 43.379,14.980 ZM42.822,11.535 C42.292,11.535 41.843,11.154 41.742,10.653 L41.729,10.659 C40.175,5.697 35.488,2.227 30.320,2.227 L30.320,2.208 C30.256,2.221 30.193,2.227 30.130,2.227 C29.517,2.227 29.024,1.732 29.018,1.110 C29.018,0.494 29.511,-0.000 30.123,-0.000 C30.193,-0.000 30.250,0.006 30.313,0.018 L30.313,-0.000 C36.422,-0.000 41.970,4.093 43.821,9.955 C43.890,10.101 43.928,10.259 43.928,10.425 C43.928,11.040 43.435,11.535 42.822,11.535 ZM30.117,17.467 C29.599,21.668 26.017,24.929 21.695,24.929 C17.374,24.929 13.798,21.668 13.273,17.467 C13.204,16.903 13.646,16.401 14.215,16.401 C14.689,16.401 15.087,16.750 15.144,17.220 C15.548,20.494 18.328,23.032 21.695,23.032 C25.063,23.032 27.849,20.494 28.247,17.220 C28.304,16.750 28.702,16.401 29.176,16.401 C29.738,16.401 30.187,16.903 30.117,17.467 ZM26.263,2.233 C25.653,2.233 25.157,1.736 25.157,1.123 C25.157,0.510 25.653,0.012 26.263,0.012 C26.874,0.012 27.369,0.510 27.369,1.123 C27.369,1.736 26.874,2.233 26.263,2.233 Z"/>
</svg>