<svg 
 xmlns="http://www.w3.org/2000/svg"
 xmlns:xlink="http://www.w3.org/1999/xlink"
 width="31px" height="31px">
<path fill-rule="evenodd"  fill="rgb(173, 173, 173)"
 d="M31.000,26.367 C31.000,28.915 28.916,31.000 26.368,31.000 L4.632,31.000 C2.085,31.000 -0.000,28.915 -0.000,26.367 L-0.000,7.043 C-0.000,4.495 2.085,2.410 4.632,2.410 L10.303,2.410 C10.792,2.410 11.187,2.806 11.187,3.294 C11.187,3.783 10.791,4.179 10.303,4.179 L4.632,4.179 C3.872,4.179 3.154,4.478 2.611,5.022 C2.067,5.565 1.768,6.283 1.768,7.043 L1.768,26.366 C1.768,27.127 2.067,27.844 2.611,28.388 C3.155,28.932 3.872,29.231 4.632,29.231 L26.368,29.231 C27.128,29.231 27.846,28.932 28.389,28.388 C28.933,27.844 29.232,27.127 29.232,26.366 L29.232,17.271 L29.232,17.271 C29.232,17.266 29.232,17.262 29.232,17.258 C29.232,16.769 29.628,16.374 30.116,16.374 C30.604,16.374 31.000,16.769 31.000,17.258 C31.000,17.262 31.000,17.266 31.000,17.271 L31.000,17.271 L31.000,26.367 ZM24.223,12.428 C23.875,12.768 23.313,12.761 22.973,12.414 C22.633,12.066 22.639,11.503 22.987,11.163 L27.875,6.600 C23.036,6.978 12.415,9.451 9.017,23.608 L8.948,24.008 C8.879,24.462 8.532,24.798 8.078,24.798 C7.623,24.798 7.250,24.452 7.207,24.008 L7.207,24.002 C7.193,23.900 7.217,23.717 7.217,23.717 C7.527,21.418 10.210,6.553 27.152,4.934 L21.701,1.631 C21.290,1.371 21.167,0.822 21.427,0.411 C21.687,-0.000 22.236,-0.124 22.647,0.136 L30.590,4.950 C30.860,5.121 31.006,5.417 31.000,5.716 C31.000,5.947 30.912,6.177 30.735,6.349 L24.223,12.428 Z"/>
</svg>