<?xml version="1.0" standalone="no"?><!DOCTYPE svg PUBLIC "-//W3C//DTD SVG 1.1//EN" "http://www.w3.org/Graphics/SVG/1.1/DTD/svg11.dtd"><svg t="1557820470971" class="icon" style="" viewBox="0 0 1024 1024" version="1.1" xmlns="http://www.w3.org/2000/svg" p-id="4953" xmlns:xlink="http://www.w3.org/1999/xlink" width="33" height="33"><defs><style type="text/css"></style></defs><path d="M512 0C226.742857 0 0 226.742857 0 512s226.742857 512 512 512 512-226.742857 512-512-226.742857-512-512-512z m0 950.857143c-241.371429 0-438.857143-197.485714-438.857143-438.857143s197.485714-438.857143 438.857143-438.857143 438.857143 197.485714 438.857143 438.857143-197.485714 438.857143-438.857143 438.857143z" fill="#e6e6e6" p-id="4954"></path><path d="M512 512m-438.857143 0a438.857143 438.857143 0 1 0 877.714286 0 438.857143 438.857143 0 1 0-877.714286 0Z" fill="#e6e6e6" p-id="4955"></path></svg>