<svg 
 xmlns="http://www.w3.org/2000/svg"
 xmlns:xlink="http://www.w3.org/1999/xlink"
 width="34px" height="34px">
<path fill-rule="evenodd"  fill="rgb(255, 255, 255)"
 d="M15.304,25.729 C18.233,25.440 20.940,24.102 22.932,21.964 C23.267,21.603 23.790,21.543 24.209,21.759 C24.245,21.774 24.274,21.799 24.308,21.818 C24.354,21.848 24.405,21.863 24.447,21.901 C24.462,21.914 24.467,21.932 24.481,21.946 C24.514,21.975 24.555,21.990 24.585,22.024 L33.724,32.207 C34.124,32.652 34.084,33.333 33.634,33.728 C33.184,34.123 32.495,34.083 32.095,33.638 L23.657,24.236 C21.415,26.268 18.567,27.538 15.515,27.841 C13.621,28.027 11.743,27.841 9.936,27.287 C8.193,26.752 6.591,25.899 5.173,24.750 C3.756,23.601 2.594,22.217 1.720,20.633 C0.813,18.992 0.259,17.210 0.071,15.337 C-0.117,13.464 0.071,11.608 0.632,9.822 C1.173,8.099 2.036,6.515 3.198,5.114 C4.360,3.712 5.761,2.564 7.363,1.700 C9.023,0.804 10.826,0.256 12.721,0.070 C14.615,-0.116 16.493,0.070 18.300,0.625 C20.043,1.159 21.646,2.013 23.063,3.161 C24.481,4.310 25.643,5.694 26.516,7.278 C27.420,8.919 27.977,10.702 28.166,12.574 C28.293,13.829 28.246,15.088 28.035,16.320 C27.934,16.897 27.379,17.286 26.795,17.186 C26.211,17.087 25.818,16.539 25.918,15.961 C26.100,14.918 26.137,13.849 26.029,12.783 C25.378,6.293 19.503,1.534 12.933,2.182 C6.363,2.829 1.556,8.633 2.207,15.128 C2.859,21.619 8.734,26.376 15.304,25.729 Z"/>
</svg>