<svg 
 xmlns="http://www.w3.org/2000/svg"
 xmlns:xlink="http://www.w3.org/1999/xlink"
 width="44px" height="44px">
<path fill-rule="evenodd"  fill="rgb(255, 255, 255)"
 d="M44.001,37.424 C44.001,41.041 41.042,44.000 37.426,44.000 L6.575,44.000 C2.959,44.000 -0.000,41.041 -0.000,37.424 L-0.000,9.997 C-0.000,6.380 2.959,3.421 6.575,3.421 L14.624,3.421 C15.317,3.421 15.879,3.983 15.879,4.676 C15.879,5.369 15.317,5.931 14.624,5.931 L6.575,5.931 C5.496,5.931 4.477,6.356 3.706,7.128 C2.935,7.899 2.510,8.918 2.510,9.997 L2.510,37.423 C2.510,38.502 2.935,39.521 3.706,40.293 C4.478,41.064 5.496,41.489 6.575,41.489 L37.426,41.489 C38.505,41.489 39.523,41.064 40.295,40.293 C41.066,39.521 41.491,38.502 41.491,37.423 L41.491,24.513 L41.491,24.513 C41.491,24.507 41.491,24.501 41.491,24.495 C41.491,23.802 42.053,23.240 42.746,23.240 C43.439,23.240 44.001,23.802 44.001,24.495 C44.001,24.501 44.000,24.507 44.000,24.513 L44.001,24.513 L44.001,37.424 ZM34.382,17.639 C33.888,18.122 33.089,18.113 32.607,17.619 C32.124,17.126 32.134,16.327 32.627,15.844 L39.565,9.368 C32.697,9.904 17.622,13.415 12.799,33.508 L12.701,34.076 C12.602,34.720 12.111,35.198 11.465,35.198 C10.820,35.198 10.290,34.706 10.230,34.076 L10.230,34.068 C10.209,33.922 10.243,33.664 10.243,33.664 C10.683,30.400 14.492,9.302 38.538,7.003 L30.802,2.315 C30.219,1.946 30.044,1.166 30.413,0.583 C30.782,-0.000 31.561,-0.176 32.144,0.194 L43.418,7.026 C43.801,7.269 44.008,7.689 44.001,8.114 C44.001,8.440 43.875,8.767 43.625,9.012 L34.382,17.639 Z"/>
</svg>