<svg 
 xmlns="http://www.w3.org/2000/svg"
 xmlns:xlink="http://www.w3.org/1999/xlink"
 width="50px" height="50px">
<path fill-rule="evenodd"  fill="rgb(179, 179, 179)"
 d="M25.000,50.000 C11.193,50.000 -0.000,38.807 -0.000,25.000 C-0.000,11.193 11.193,-0.000 25.000,-0.000 C38.807,-0.000 50.000,11.193 50.000,25.000 C50.000,38.807 38.807,50.000 25.000,50.000 ZM22.377,12.648 L19.709,12.648 L19.709,28.225 L15.852,29.422 L15.852,15.325 L13.213,15.325 L13.213,29.080 C13.213,30.219 12.633,30.732 12.198,31.016 C12.575,31.615 13.068,32.782 13.242,33.437 C13.851,32.982 14.750,32.498 19.709,30.789 L19.709,38.364 L22.377,38.364 L22.377,12.648 ZM36.209,20.081 L38.152,20.081 L38.152,17.574 L28.757,17.574 C29.221,15.980 29.598,14.328 29.888,12.648 L27.133,12.192 C26.350,17.033 24.900,21.590 22.435,24.409 C23.015,24.950 23.972,26.118 24.349,26.659 C25.045,25.833 25.712,24.865 26.263,23.783 C27.133,26.403 28.148,28.852 29.424,30.988 C27.800,33.209 25.683,34.947 22.957,36.228 C23.508,36.741 24.436,37.851 24.726,38.421 C27.278,37.054 29.308,35.345 30.932,33.295 C32.498,35.317 34.383,36.997 36.557,38.222 C36.963,37.538 37.775,36.541 38.413,36.086 C36.065,34.918 34.122,33.209 32.469,31.045 C34.267,28.055 35.426,24.438 36.209,20.081 ZM27.713,20.679 L27.945,20.081 L33.513,20.081 C32.961,23.384 32.120,26.232 30.874,28.624 C29.511,26.260 28.467,23.555 27.713,20.679 Z"/>
</svg>