<svg 
 xmlns="http://www.w3.org/2000/svg"
 xmlns:xlink="http://www.w3.org/1999/xlink"
 width="22px" height="19px">
<path fill-rule="evenodd"  fill="rgb(128, 128, 128)"
 d="M18.242,15.931 L19.529,14.597 C19.865,14.249 20.411,14.249 20.747,14.597 C21.083,14.946 21.083,15.510 20.747,15.859 L17.979,18.727 C17.733,18.983 17.363,19.060 17.041,18.922 C16.719,18.783 16.510,18.457 16.512,18.096 L16.512,0.889 C16.567,0.437 16.938,0.099 17.377,0.099 C17.816,0.099 18.187,0.437 18.242,0.889 L18.242,15.931 ZM0.762,1.792 C0.327,1.735 -0.000,1.351 -0.000,0.896 C-0.000,0.441 0.327,0.057 0.762,-0.000 L13.218,-0.000 C13.654,0.057 13.980,0.441 13.980,0.896 C13.980,1.351 13.654,1.735 13.218,1.792 L0.762,1.792 ZM0.762,10.396 C0.327,10.339 -0.000,9.955 -0.000,9.500 C-0.000,9.045 0.327,8.661 0.762,8.604 L13.218,8.604 C13.654,8.661 13.980,9.045 13.980,9.500 C13.980,9.955 13.654,10.339 13.218,10.396 L0.762,10.396 ZM0.762,18.999 C0.327,18.942 -0.000,18.558 -0.000,18.103 C-0.000,17.648 0.327,17.264 0.762,17.207 L13.218,17.207 C13.654,17.264 13.980,17.648 13.980,18.103 C13.980,18.558 13.654,18.942 13.218,18.999 L0.762,18.999 Z"/>
</svg>