<svg 
 xmlns="http://www.w3.org/2000/svg"
 xmlns:xlink="http://www.w3.org/1999/xlink"
 width="37px" height="34px">
<path fill-rule="evenodd"  fill="rgb(225, 33, 45)"
 d="M36.084,13.211 C35.913,12.702 35.485,12.316 34.951,12.188 L25.101,9.867 L19.793,1.437 C19.504,0.979 18.994,0.700 18.448,0.700 C17.897,0.700 17.388,0.979 17.102,1.437 L11.798,9.867 L1.949,12.188 C1.415,12.316 0.986,12.702 0.815,13.211 C0.644,13.721 0.758,14.282 1.117,14.688 L7.689,22.219 L6.906,32.083 C6.865,32.616 7.110,33.134 7.554,33.448 C7.827,33.643 8.154,33.743 8.484,33.743 C8.688,33.743 8.892,33.703 9.087,33.627 L18.452,29.850 L27.821,33.627 C28.016,33.707 28.220,33.743 28.424,33.743 C28.754,33.743 29.076,33.643 29.354,33.448 C29.798,33.134 30.043,32.616 30.002,32.083 L29.219,22.219 L35.791,14.688 C36.138,14.282 36.252,13.721 36.084,13.211 L36.084,13.211 Z"/>
</svg>