<svg 
 xmlns="http://www.w3.org/2000/svg"
 xmlns:xlink="http://www.w3.org/1999/xlink"
 width="36px" height="34px">
<path fill-rule="evenodd"  fill="rgb(225, 33, 45)"
 d="M35.662,13.211 C35.491,12.702 35.063,12.316 34.529,12.188 L24.679,9.867 L19.371,1.437 C19.081,0.979 18.572,0.700 18.025,0.700 C17.475,0.700 16.965,0.979 16.680,1.437 L11.376,9.867 L1.526,12.188 C0.992,12.316 0.564,12.702 0.393,13.211 C0.222,13.721 0.336,14.282 0.694,14.688 L7.266,22.219 L6.484,32.083 C6.443,32.616 6.687,33.134 7.132,33.448 C7.405,33.643 7.731,33.743 8.061,33.743 C8.265,33.743 8.469,33.703 8.665,33.627 L18.029,29.850 L27.398,33.627 C27.594,33.707 27.798,33.743 28.001,33.743 C28.332,33.743 28.654,33.643 28.931,33.448 C29.375,33.134 29.620,32.616 29.579,32.083 L28.797,22.219 L35.368,14.688 C35.715,14.282 35.829,13.721 35.662,13.211 L35.662,13.211 ZM27.161,21.706 L27.997,32.206 L18.025,28.186 L8.057,32.206 L8.893,21.706 L1.893,13.689 L12.379,11.221 L18.025,2.249 L23.672,11.221 L34.158,13.689 L27.161,21.706 Z"/>
</svg>