<svg 
 xmlns="http://www.w3.org/2000/svg"
 xmlns:xlink="http://www.w3.org/1999/xlink"
 width="119px" height="113px">
<path fill-rule="evenodd"  fill="rgb(225, 33, 45)"
 d="M96.448,7.748 C89.220,7.748 82.786,11.125 78.660,16.377 L50.518,0.255 C49.920,-0.088 49.188,-0.088 48.591,0.255 L0.971,27.538 C0.370,27.883 -0.000,28.520 -0.000,29.211 L-0.000,83.788 C-0.000,84.479 0.370,85.116 0.971,85.461 L48.591,112.744 C48.601,112.749 48.612,112.755 48.622,112.760 C48.633,112.767 48.645,112.772 48.656,112.778 C48.700,112.802 48.745,112.823 48.791,112.843 C48.797,112.845 48.804,112.849 48.810,112.851 C48.861,112.872 48.914,112.892 48.967,112.909 C48.980,112.912 48.993,112.916 49.005,112.919 C49.052,112.934 49.099,112.946 49.147,112.956 C49.155,112.958 49.164,112.960 49.173,112.962 C49.228,112.973 49.283,112.981 49.339,112.987 C49.352,112.989 49.366,112.990 49.380,112.991 C49.438,112.996 49.496,113.000 49.554,113.000 L49.569,113.000 C49.575,113.000 49.581,112.999 49.588,112.999 C49.639,112.998 49.689,112.995 49.740,112.990 C49.754,112.988 49.768,112.988 49.782,112.986 C49.836,112.979 49.889,112.971 49.943,112.960 C49.957,112.957 49.972,112.954 49.986,112.950 C50.030,112.941 50.072,112.929 50.115,112.916 C50.128,112.912 50.141,112.909 50.155,112.905 C50.206,112.888 50.256,112.868 50.306,112.848 C50.319,112.843 50.331,112.837 50.343,112.831 C50.384,112.813 50.425,112.793 50.465,112.772 C50.476,112.765 50.488,112.760 50.499,112.754 C50.505,112.751 50.511,112.747 50.518,112.744 L98.145,85.461 C98.746,85.116 99.116,84.479 99.116,83.788 L99.116,52.352 C110.312,51.042 119.000,41.593 119.000,30.130 C119.000,17.771 108.901,7.748 96.448,7.748 L96.448,7.748 ZM49.554,4.152 L76.542,19.612 C74.857,22.748 73.901,26.328 73.901,30.130 C73.901,33.334 74.581,36.380 75.803,39.136 L73.171,40.632 L29.435,15.680 L49.554,4.152 ZM3.869,82.671 L3.869,32.986 L47.231,57.625 L47.596,107.725 L3.869,82.671 ZM49.157,54.276 L5.432,29.432 L25.548,17.906 L69.268,42.849 L49.157,54.276 ZM95.247,82.671 L51.464,107.753 L51.100,57.615 L77.670,42.519 C81.503,48.230 87.910,52.094 95.247,52.477 L95.247,82.671 ZM110.155,25.982 L96.282,39.743 C95.526,40.491 94.540,40.865 93.554,40.865 C92.568,40.865 91.578,40.491 90.826,39.743 L82.749,31.727 C81.234,30.224 81.226,27.781 82.734,26.271 C84.242,24.764 86.697,24.758 88.205,26.257 L93.554,31.567 L104.700,20.513 C106.215,19.010 108.663,19.014 110.170,20.528 C111.678,22.037 111.670,24.479 110.155,25.982 L110.155,25.982 Z"/>
</svg>