<svg 
 xmlns="http://www.w3.org/2000/svg"
 xmlns:xlink="http://www.w3.org/1999/xlink"
 width="162px" height="115px">
<path fill-rule="evenodd"  fill="rgb(225, 33, 45)"
 d="M141.904,115.000 L20.095,115.000 C9.042,115.000 -0.000,105.943 -0.000,94.875 L-0.000,20.125 C-0.000,9.056 9.042,-0.000 20.095,-0.000 L141.904,-0.000 C152.957,-0.000 161.999,9.056 161.999,20.125 L161.999,94.875 C161.999,105.943 152.957,115.000 141.904,115.000 ZM155.045,19.223 C155.045,12.205 149.312,6.463 142.305,6.463 L19.064,6.463 C12.057,6.463 6.323,12.205 6.323,19.223 L6.323,30.691 L155.045,30.691 L155.045,19.223 ZM155.045,37.444 L6.324,37.444 L6.324,95.780 C6.324,102.797 12.057,108.539 19.064,108.539 L142.305,108.539 C149.312,108.539 155.045,102.797 155.045,95.780 L155.045,37.444 ZM119.209,97.837 C119.161,97.884 119.105,97.917 119.055,97.961 C118.985,98.050 118.929,98.148 118.847,98.229 C117.516,99.532 114.971,99.154 113.163,97.384 L100.649,85.136 C98.841,83.366 98.454,80.876 99.785,79.573 C101.117,78.271 103.661,78.648 105.470,80.418 L116.417,91.133 L142.152,65.945 C143.481,64.644 145.638,64.645 146.969,65.948 C148.301,67.252 148.302,69.363 146.973,70.664 L119.209,97.837 ZM84.055,57.302 L23.377,57.302 C21.515,57.302 20.006,55.791 20.006,53.926 C20.006,52.062 21.515,50.550 23.377,50.550 L84.055,50.550 C85.917,50.550 87.427,52.062 87.427,53.926 C87.427,55.791 85.917,57.302 84.055,57.302 Z"/>
</svg>