<svg 
 xmlns="http://www.w3.org/2000/svg"
 xmlns:xlink="http://www.w3.org/1999/xlink"
 width="50px" height="47px">
<path fill-rule="evenodd"  fill="rgb(255, 255, 255)"
 d="M43.688,42.082 C43.018,42.216 42.444,42.527 42.032,42.996 L38.969,46.460 C38.659,46.810 38.217,47.000 37.768,47.000 C37.598,47.000 37.421,46.974 37.257,46.917 C36.650,46.714 36.220,46.169 36.164,45.522 L35.999,43.516 C35.936,42.793 35.323,42.228 34.603,42.228 L31.798,42.228 C29.441,42.228 27.186,41.213 25.606,39.430 L25.619,39.417 C25.404,39.215 25.271,38.929 25.271,38.611 C25.271,37.996 25.764,37.501 26.377,37.501 C26.762,37.501 27.103,37.704 27.300,38.002 C28.456,39.278 30.086,40.007 31.791,40.007 L34.596,40.007 C36.454,40.007 38.040,41.467 38.192,43.332 L38.242,43.935 L40.378,41.524 C41.117,40.686 42.115,40.128 43.265,39.906 C45.887,39.398 47.789,37.083 47.789,34.405 L47.789,31.252 C47.789,28.860 46.348,26.683 44.231,25.700 C42.987,32.279 37.219,37.273 30.313,37.273 L25.208,37.273 C23.427,37.273 21.916,38.669 21.771,40.452 L21.468,44.094 C21.405,44.906 20.862,45.591 20.097,45.851 C19.889,45.921 19.674,45.953 19.459,45.953 C18.890,45.953 18.341,45.718 17.949,45.274 L12.376,38.979 C11.492,37.977 10.279,37.305 8.863,37.032 C2.634,35.826 -0.000,30.331 -0.000,23.967 L-0.000,18.238 C-0.000,10.395 4.466,4.012 12.282,4.006 L22.403,4.006 C23.016,4.006 23.509,4.501 23.509,5.116 C23.509,5.732 23.016,6.227 22.403,6.227 L12.282,6.227 C5.686,6.227 2.211,11.614 2.211,18.238 L2.211,23.967 C2.211,29.272 4.087,33.853 9.281,34.855 C11.176,35.223 12.812,36.144 14.026,37.508 L19.307,43.466 L19.573,40.261 C19.812,37.343 22.289,35.052 25.208,35.052 L30.320,35.052 C36.909,35.052 42.273,29.671 42.273,23.048 L42.273,21.753 C42.273,21.137 42.766,20.642 43.378,20.642 C43.991,20.642 44.484,21.137 44.484,21.753 L44.484,23.048 C44.484,23.168 44.478,23.282 44.478,23.403 C47.769,24.570 50.000,27.679 50.000,31.252 L50.000,34.405 C50.000,38.148 47.346,41.371 43.688,42.082 ZM44.484,17.870 C44.484,18.483 43.989,18.980 43.378,18.980 C42.768,18.980 42.273,18.483 42.273,17.870 C42.273,17.257 42.768,16.760 43.378,16.760 C43.989,16.760 44.484,17.257 44.484,17.870 ZM37.500,15.000 C33.358,15.000 30.000,11.642 30.000,7.500 C30.000,3.358 33.358,-0.000 37.500,-0.000 C41.642,-0.000 45.000,3.358 45.000,7.500 C45.000,11.642 41.642,15.000 37.500,15.000 ZM21.695,28.929 C17.374,28.929 13.798,25.668 13.274,21.467 C13.204,20.903 13.646,20.401 14.215,20.401 C14.689,20.401 15.087,20.750 15.144,21.220 C15.548,24.494 18.328,27.032 21.695,27.032 C25.063,27.032 27.849,24.494 28.247,21.220 C28.304,20.750 28.702,20.401 29.176,20.401 C29.738,20.401 30.187,20.903 30.117,21.467 C29.599,25.668 26.017,28.929 21.695,28.929 ZM26.263,6.233 C25.653,6.233 25.158,5.736 25.158,5.123 C25.158,4.510 25.653,4.012 26.263,4.012 C26.874,4.012 27.369,4.510 27.369,5.123 C27.369,5.736 26.874,6.233 26.263,6.233 Z"/>
</svg>