<svg 
 xmlns="http://www.w3.org/2000/svg"
 xmlns:xlink="http://www.w3.org/1999/xlink"
 width="38px" height="36px">
<path fill-rule="evenodd"  fill="rgb(225, 33, 45)"
 d="M23.030,29.426 C22.554,29.426 22.167,29.038 22.167,28.561 L22.167,26.230 L18.605,26.230 C18.129,26.230 17.742,25.843 17.742,25.366 C17.742,24.889 18.129,24.502 18.605,24.502 L22.167,24.502 L22.167,22.732 L18.802,22.732 C18.326,22.732 17.939,22.345 17.939,21.868 C17.939,21.391 18.326,21.004 18.802,21.004 L22.167,21.004 L22.167,19.766 L18.457,16.878 C18.275,16.736 18.160,16.533 18.131,16.303 C18.102,16.075 18.164,15.848 18.305,15.666 C18.598,15.289 19.141,15.221 19.516,15.513 L23.030,18.248 L26.543,15.513 C26.917,15.221 27.461,15.289 27.754,15.666 C27.895,15.848 27.957,16.074 27.928,16.303 C27.900,16.533 27.784,16.736 27.602,16.878 L23.893,19.766 L23.893,21.004 L27.258,21.004 C27.734,21.004 28.121,21.391 28.121,21.868 C28.121,22.345 27.734,22.732 27.258,22.732 L23.893,22.732 L23.893,24.502 L27.455,24.502 C27.930,24.502 28.317,24.889 28.317,25.366 C28.317,25.843 27.930,26.230 27.455,26.230 L23.893,26.230 L23.893,28.561 C23.893,29.038 23.506,29.426 23.030,29.426 ZM36.757,26.379 C37.500,26.638 38.000,27.335 38.000,28.111 L38.000,31.627 C38.000,34.042 36.045,36.000 33.634,36.000 L11.964,36.000 C11.412,36.000 10.964,35.551 10.964,34.997 C10.964,34.444 11.412,33.995 11.964,33.995 L33.634,33.995 C34.940,33.995 35.998,32.935 35.998,31.626 L35.998,28.236 C33.691,27.384 32.149,25.175 32.149,22.705 C32.149,20.234 33.691,18.025 35.998,17.173 L35.998,13.131 C35.998,11.823 34.940,10.762 33.634,10.762 L11.964,10.762 C11.412,10.762 10.964,10.314 10.964,9.760 C10.964,9.206 11.412,8.757 11.964,8.757 L33.634,8.757 C36.045,8.757 38.000,10.716 38.000,13.131 L38.000,17.299 C38.000,18.067 37.512,18.755 36.784,19.022 C35.924,19.336 35.144,19.866 34.697,20.667 C33.388,23.016 34.569,25.616 36.757,26.379 ZM36.654,7.970 C36.101,7.970 35.653,7.521 35.653,6.967 L35.653,4.373 C35.653,3.065 34.595,2.005 33.289,2.005 L4.710,2.005 C3.405,2.005 2.346,3.065 2.346,4.373 L2.346,6.968 C2.346,7.522 1.898,7.970 1.345,7.970 C0.793,7.970 0.344,7.522 0.344,6.968 L0.344,4.373 C0.344,1.958 2.299,-0.000 4.710,-0.000 L33.289,-0.000 C35.700,-0.000 37.655,1.958 37.655,4.373 L37.655,6.967 C37.655,7.521 37.207,7.970 36.654,7.970 ZM4.365,8.757 L8.423,8.757 C8.975,8.757 9.424,9.206 9.424,9.760 C9.424,10.313 8.976,10.762 8.423,10.762 L4.365,10.762 C3.060,10.762 2.001,11.822 2.001,13.130 L2.001,17.174 C4.308,18.025 5.851,20.234 5.851,22.705 C5.851,25.175 4.308,27.384 2.001,28.236 L2.001,31.626 C2.001,32.935 3.060,33.995 4.366,33.995 L8.423,33.995 C8.975,33.995 9.424,34.444 9.424,34.998 C9.423,35.551 8.975,36.000 8.423,36.000 L4.365,36.000 C1.954,36.000 -0.000,34.042 -0.000,31.626 L-0.000,28.111 C-0.000,27.343 0.487,26.655 1.215,26.389 C2.075,26.074 2.856,25.545 3.302,24.745 C4.611,22.395 3.430,19.794 1.242,19.031 C0.499,18.772 -0.000,18.076 -0.000,17.299 L-0.000,13.131 C-0.000,10.715 1.955,8.757 4.365,8.757 Z"/>
</svg>