<svg 
 xmlns="http://www.w3.org/2000/svg"
 xmlns:xlink="http://www.w3.org/1999/xlink"
 width="30px" height="30px">
<path fill-rule="evenodd"  fill="rgb(225, 33, 45)"
 d="M27.591,28.266 C26.825,29.539 24.774,30.000 23.581,30.000 L16.351,30.000 C12.485,30.000 9.149,28.341 8.250,27.857 L5.352,27.857 C4.759,27.857 4.281,27.379 4.281,26.786 L4.281,11.787 C4.281,11.194 4.759,10.716 5.352,10.716 L8.360,10.716 C8.798,10.572 10.981,9.766 12.024,7.992 C12.387,7.375 12.675,6.183 12.957,5.037 C13.389,3.280 13.793,1.621 14.657,0.740 C15.383,0.003 16.731,-0.211 18.004,0.221 C19.721,0.809 20.902,2.347 21.144,4.351 C21.450,6.874 20.920,9.645 20.459,10.716 L26.802,10.716 C28.254,10.716 30.005,12.167 29.999,13.953 C29.999,15.249 28.363,26.976 27.591,28.266 ZM26.796,12.853 L18.915,12.853 C18.552,12.853 18.212,12.674 18.016,12.369 C17.820,12.064 17.791,11.689 17.947,11.355 C17.958,11.321 19.433,8.055 19.012,4.622 C18.822,3.061 17.929,2.491 17.417,2.289 C16.789,2.042 16.287,2.157 16.184,2.243 C15.734,2.698 15.348,4.276 15.043,5.544 C14.715,6.903 14.398,8.193 13.879,9.074 C12.450,11.505 9.667,12.542 9.017,12.755 C8.988,12.772 8.959,12.772 8.930,12.784 C8.901,12.790 8.878,12.795 8.873,12.801 C8.855,12.807 8.838,12.801 8.821,12.807 C8.740,12.830 8.659,12.859 8.573,12.859 L6.430,12.859 L6.430,25.715 L9.114,25.715 C9.149,25.715 12.531,27.857 16.357,27.857 L23.593,27.857 C24.543,27.857 25.603,27.437 25.765,27.166 C26.208,26.152 27.862,15.387 27.856,13.953 C27.856,13.354 27.090,12.853 26.796,12.853 ZM1.072,27.863 C0.478,27.863 0.000,27.385 0.000,26.792 L0.000,11.787 C0.000,11.194 0.478,10.716 1.072,10.716 C1.665,10.716 2.143,11.194 2.143,11.787 L2.143,26.786 C2.143,27.385 1.665,27.863 1.072,27.863 Z"/>
</svg>