<svg 
 xmlns="http://www.w3.org/2000/svg"
 xmlns:xlink="http://www.w3.org/1999/xlink"
 width="40px" height="40px">
<path fill-rule="evenodd"  fill="rgb(90, 158, 247)"
 d="M19.999,40.000 C8.928,40.000 -0.000,31.071 -0.000,20.000 C-0.000,8.929 8.928,-0.000 19.999,-0.000 C31.071,-0.000 40.000,8.929 40.000,20.000 C40.000,31.071 31.071,40.000 19.999,40.000 ZM25.642,19.500 C26.428,17.500 26.499,16.357 26.499,16.357 L20.785,16.285 L20.785,14.357 L27.714,14.286 L27.714,12.857 L20.714,12.857 L20.714,9.714 L17.285,9.714 L17.285,12.857 L10.714,12.857 L10.714,14.286 L17.214,14.214 L17.214,16.357 L12.071,16.357 L12.071,17.500 L22.785,17.500 C22.714,18.214 22.499,18.857 22.285,19.500 C21.857,20.571 21.428,21.571 21.428,21.571 C21.428,21.571 16.428,19.786 13.714,19.786 C11.071,19.786 7.857,20.857 7.499,23.928 C7.214,27.000 9.000,28.714 11.571,29.285 C14.071,29.857 16.428,29.285 18.500,28.285 C20.571,27.286 22.571,25.000 22.571,25.000 L33.214,30.214 C33.214,30.214 33.857,29.214 34.357,28.285 C34.714,27.643 35.000,26.928 35.285,26.286 L24.214,22.500 C24.214,22.500 24.928,21.500 25.642,19.500 ZM13.214,27.571 C9.428,27.571 8.714,25.714 8.714,24.428 C8.714,23.143 9.500,21.643 12.714,21.428 C15.857,21.214 20.214,23.714 20.214,23.714 C20.214,23.714 16.999,27.571 13.214,27.571 Z"/>
</svg>