<svg 
 xmlns="http://www.w3.org/2000/svg"
 xmlns:xlink="http://www.w3.org/1999/xlink"
 width="40px" height="40px">
<path fill-rule="evenodd"  fill="rgb(179, 179, 179)"
 d="M20.000,40.000 C8.954,40.000 -0.000,31.046 -0.000,20.000 C-0.000,8.954 8.954,-0.000 20.000,-0.000 C31.045,-0.000 40.000,8.954 40.000,20.000 C40.000,31.046 31.045,40.000 20.000,40.000 ZM32.394,11.885 C32.394,11.885 32.416,10.627 30.632,10.444 L9.467,10.444 C9.467,10.444 8.197,10.478 7.934,11.794 L7.887,14.871 L32.394,14.883 L32.394,11.885 ZM32.394,18.029 L7.887,18.029 L7.934,27.814 C8.186,29.462 9.459,29.538 9.459,29.538 L30.700,29.538 C32.310,29.309 32.394,27.685 32.394,27.685 L32.394,18.029 ZM28.458,24.664 L30.254,24.664 L30.254,26.449 L28.458,26.449 L28.458,24.664 ZM26.227,24.664 L28.023,24.664 L28.023,26.449 L26.227,26.449 L26.227,24.664 ZM24.019,24.664 L25.815,24.664 L25.815,26.449 L24.019,26.449 L24.019,24.664 Z"/>
</svg>