<svg 
 xmlns="http://www.w3.org/2000/svg"
 xmlns:xlink="http://www.w3.org/1999/xlink"
 width="40px" height="40px">
<path fill-rule="evenodd"  fill="rgb(0, 230, 12)"
 d="M27.200,21.600 C27.641,21.600 28.000,21.241 28.000,20.800 C28.000,20.358 27.641,20.000 27.200,20.000 C26.758,20.000 26.400,20.358 26.400,20.800 C26.400,21.241 26.758,21.600 27.200,21.600 L27.200,21.600 ZM22.400,21.600 C22.841,21.600 23.200,21.241 23.200,20.800 C23.200,20.358 22.841,20.000 22.400,20.000 C21.958,20.000 21.600,20.358 21.600,20.800 C21.600,21.241 21.958,21.600 22.400,21.600 L22.400,21.600 ZM19.600,16.000 C20.262,16.000 20.800,15.463 20.800,14.800 C20.800,14.137 20.262,13.600 19.600,13.600 C18.937,13.600 18.400,14.137 18.400,14.800 C18.400,15.463 18.937,16.000 19.600,16.000 L19.600,16.000 ZM13.200,16.000 C13.862,16.000 14.400,15.463 14.400,14.800 C14.400,14.137 13.862,13.600 13.200,13.600 C12.538,13.600 12.000,14.137 12.000,14.800 C12.000,15.463 12.538,16.000 13.200,16.000 L13.200,16.000 ZM20.000,40.000 C31.045,40.000 40.000,31.046 40.000,20.000 C40.000,8.954 31.045,-0.000 20.000,-0.000 C8.954,-0.000 -0.000,8.954 -0.000,20.000 C-0.000,31.046 8.954,40.000 20.000,40.000 L20.000,40.000 ZM17.645,23.866 C17.241,23.923 16.824,23.952 16.401,23.952 C15.340,23.952 14.329,23.770 13.411,23.440 C13.320,23.407 12.994,23.309 12.818,23.440 C12.420,23.735 11.888,24.348 11.888,24.348 C11.888,24.348 12.083,23.902 12.149,23.250 C12.178,22.953 11.724,22.744 11.633,22.683 C9.905,21.514 8.799,19.583 8.799,17.576 C8.799,14.055 12.202,11.200 16.400,11.200 C20.319,11.200 23.545,13.688 23.955,16.884 C20.349,17.382 17.599,20.007 17.599,23.170 C17.600,23.406 17.615,23.638 17.645,23.866 L17.645,23.866 ZM18.065,25.371 C17.525,25.456 16.968,25.501 16.400,25.501 C15.264,25.501 14.178,25.323 13.174,24.998 C12.669,24.836 10.824,26.766 10.366,26.532 C10.093,26.393 11.189,24.110 10.936,23.947 C8.668,22.499 7.199,20.173 7.199,17.550 C7.199,13.159 11.318,9.600 16.399,9.600 C21.190,9.600 25.126,12.764 25.559,16.807 C29.589,16.964 32.799,19.753 32.799,23.170 C32.799,25.292 31.561,27.172 29.658,28.330 C29.299,28.548 30.435,30.387 30.032,30.550 C29.784,30.651 28.012,29.095 27.750,29.173 C26.952,29.412 26.094,29.541 25.199,29.541 C21.925,29.541 19.134,27.804 18.065,25.371 L18.065,25.371 Z"/>
</svg>