<svg 
 xmlns="http://www.w3.org/2000/svg"
 xmlns:xlink="http://www.w3.org/1999/xlink"
 width="49px" height="49px">
<path fill-rule="evenodd"  fill="rgb(26, 26, 26)"
 d="M24.500,-0.000 C10.993,-0.000 -0.000,10.993 -0.000,24.500 C-0.000,38.007 10.993,49.000 24.500,49.000 C38.007,49.000 49.000,38.007 49.000,24.500 C49.000,10.993 38.007,-0.000 24.500,-0.000 L24.500,-0.000 ZM24.500,46.721 C18.756,46.721 13.531,44.513 9.582,40.924 C10.815,40.050 12.374,39.637 14.529,39.111 C16.749,38.568 20.025,38.279 19.854,35.593 C20.456,35.540 21.011,36.248 21.838,36.585 C24.441,37.653 27.647,37.033 29.512,35.321 C29.229,38.084 32.434,38.515 34.837,39.111 C36.886,39.619 38.391,39.973 39.613,40.741 C35.652,44.437 30.345,46.721 24.500,46.721 L24.500,46.721 ZM26.177,10.757 C31.183,11.187 34.560,16.825 33.220,22.676 C33.432,22.853 33.999,22.682 34.034,23.036 C34.182,25.096 33.621,27.186 32.051,27.824 C31.242,31.142 29.194,34.766 25.462,35.227 C20.840,35.800 18.242,31.496 17.427,27.824 C15.792,27.204 15.373,25.368 15.349,23.130 C15.432,22.794 15.869,22.806 16.164,22.682 C15.078,15.208 18.720,10.119 26.177,10.757 L26.177,10.757 ZM41.018,39.312 C40.629,39.011 40.209,38.722 39.719,38.480 C37.305,37.287 34.029,37.393 31.596,35.953 L31.596,33.515 C32.411,32.222 33.314,31.023 33.674,29.270 C35.132,27.835 36.236,25.870 36.112,23.490 C36.071,22.723 35.493,22.115 35.392,21.412 C35.280,20.663 35.522,19.919 35.481,19.246 C35.127,13.525 31.525,9.641 26.271,8.773 L23.201,8.773 C18.266,9.434 14.476,13.389 13.992,18.525 C13.909,19.417 14.110,20.391 13.992,21.324 C13.909,21.991 13.443,22.469 13.360,23.219 C13.200,24.701 13.649,26.005 14.080,27.009 C14.476,27.918 15.219,28.402 15.704,29.264 C16.513,30.699 16.695,32.446 17.870,33.509 L17.870,36.036 C14.960,37.464 11.848,37.311 9.475,38.562 C9.003,38.811 8.572,39.135 8.159,39.501 C4.522,35.546 2.279,30.285 2.279,24.500 C2.279,12.250 12.244,2.279 24.500,2.279 C36.750,2.279 46.721,12.250 46.721,24.500 C46.721,30.191 44.549,35.374 41.018,39.312 L41.018,39.312 Z"/>
</svg>