<svg 
 xmlns="http://www.w3.org/2000/svg"
 xmlns:xlink="http://www.w3.org/1999/xlink"
 width="55px" height="49px">
<path fill-rule="evenodd"  fill="rgb(26, 26, 26)"
 d="M53.535,19.843 L27.912,0.265 C27.472,-0.082 26.857,-0.088 26.417,0.259 L0.469,19.837 C-0.061,20.250 -0.158,21.022 0.252,21.557 C0.493,21.867 0.849,22.031 1.216,22.031 C1.475,22.031 1.740,21.946 1.957,21.776 L5.200,19.332 L5.200,47.766 C5.200,48.447 5.742,48.994 6.417,48.994 L22.223,48.994 C22.892,48.994 23.441,48.447 23.441,47.766 L23.441,34.309 L30.744,34.309 L30.744,47.773 C30.744,48.094 31.250,48.411 31.479,48.641 C31.708,48.872 32.016,49.000 32.341,49.000 L47.792,49.000 C48.461,49.000 49.009,48.453 49.009,47.773 L49.009,19.466 L52.034,21.776 C52.564,22.195 53.330,22.098 53.740,21.563 C54.155,21.034 54.065,20.262 53.535,19.843 L53.535,19.843 ZM46.574,18.153 L46.574,46.545 L33.173,46.545 L33.178,33.081 C33.178,32.759 33.052,32.443 32.823,32.212 C32.594,31.981 32.287,31.853 31.961,31.853 L22.229,31.853 C21.560,31.853 21.012,32.401 21.012,33.081 L21.012,46.545 L7.634,46.545 L7.634,17.703 C7.634,17.642 7.610,17.588 7.598,17.527 L27.152,2.787 L46.665,17.679 C46.611,17.825 46.574,17.983 46.574,18.153 L46.574,18.153 Z"/>
</svg>