<svg 
 xmlns="http://www.w3.org/2000/svg"
 xmlns:xlink="http://www.w3.org/1999/xlink"
 width="45px" height="45px">
<path fill-rule="evenodd"  fill="rgb(26, 26, 26)"
 d="M18.239,24.325 L2.430,24.325 C1.089,24.325 0.000,25.415 0.000,26.756 L0.000,42.570 C0.000,43.911 1.089,45.000 2.430,45.000 L18.244,45.000 C19.585,45.000 20.674,43.911 20.674,42.570 L20.674,26.761 C20.674,25.420 19.580,24.325 18.239,24.325 L18.239,24.325 ZM2.430,42.575 L2.430,26.761 L18.244,26.761 L18.244,42.575 L2.430,42.575 ZM18.239,0.000 L2.430,0.000 C1.089,0.000 0.000,1.089 0.000,2.430 L0.000,18.244 C0.000,19.585 1.089,20.674 2.430,20.674 L18.244,20.674 C19.585,20.674 20.674,19.585 20.674,18.244 L20.674,2.436 C20.674,1.089 19.580,0.000 18.239,0.000 L18.239,0.000 ZM2.430,18.244 L2.430,2.436 L18.244,2.436 L18.244,18.250 L2.430,18.250 L2.430,18.244 ZM42.564,24.325 L26.756,24.325 C25.415,24.325 24.325,25.415 24.325,26.756 L24.325,42.570 C24.325,43.911 25.415,45.000 26.756,45.000 L42.570,45.000 C43.911,45.000 45.000,43.911 45.000,42.570 L45.000,26.761 C45.000,25.420 43.905,24.325 42.564,24.325 L42.564,24.325 ZM26.756,42.575 L26.756,26.761 L42.570,26.761 L42.570,42.575 L26.756,42.575 ZM42.564,0.000 L26.756,0.000 C25.415,0.000 24.325,1.089 24.325,2.430 L24.325,18.244 C24.325,19.585 25.415,20.674 26.756,20.674 L42.570,20.674 C43.911,20.674 45.000,19.585 45.000,18.244 L45.000,2.436 C45.000,1.089 43.905,0.000 42.564,0.000 L42.564,0.000 ZM26.756,18.244 L26.756,2.436 L42.570,2.436 L42.570,18.250 L26.756,18.250 L26.756,18.244 Z"/>
</svg>