<svg 
 xmlns="http://www.w3.org/2000/svg"
 xmlns:xlink="http://www.w3.org/1999/xlink"
 width="52px" height="51px">
<path fill-rule="evenodd"  fill="rgb(223, 7, 21)"
 d="M49.743,30.058 C49.428,32.344 47.486,34.066 45.229,34.066 L15.187,34.066 L15.514,36.945 L50.571,36.945 C51.371,36.945 52.000,37.565 52.000,38.355 C52.000,39.146 51.371,39.767 50.571,39.767 L12.943,39.767 L8.743,2.822 L1.428,2.822 C0.628,2.822 -0.000,2.201 -0.000,1.411 C-0.000,0.621 0.628,-0.000 1.428,-0.000 L11.314,-0.000 L12.299,8.664 L47.457,8.664 C49.971,8.664 52.000,10.753 52.000,13.293 C52.000,13.491 52.000,13.717 51.971,13.914 L49.743,30.058 ZM47.457,11.487 L12.620,11.487 L13.101,15.720 L48.817,15.720 L49.114,13.576 C49.143,12.305 48.371,11.487 47.457,11.487 ZM22.000,42.533 C24.371,42.533 26.286,44.424 26.286,46.766 C26.286,49.109 24.371,51.000 22.000,51.000 C19.628,51.000 17.714,49.109 17.714,46.766 C17.714,44.424 19.628,42.533 22.000,42.533 ZM22.000,48.178 C22.800,48.178 23.428,47.557 23.428,46.766 C23.428,45.976 22.800,45.355 22.000,45.355 C21.200,45.355 20.571,45.976 20.571,46.766 C20.571,47.557 21.200,48.178 22.000,48.178 ZM42.000,42.533 C44.371,42.533 46.286,44.424 46.286,46.766 C46.286,49.109 44.371,51.000 42.000,51.000 C39.628,51.000 37.714,49.109 37.714,46.766 C37.714,44.424 39.628,42.533 42.000,42.533 ZM42.000,48.178 C42.800,48.178 43.429,47.557 43.429,46.766 C43.429,45.976 42.800,45.355 42.000,45.355 C41.200,45.355 40.571,45.976 40.571,46.766 C40.571,47.557 41.200,48.178 42.000,48.178 Z"/>
</svg>