<svg 
 xmlns="http://www.w3.org/2000/svg"
 xmlns:xlink="http://www.w3.org/1999/xlink"
 width="49px" height="49px">
<path fill-rule="evenodd"  fill="rgb(223, 7, 21)"
 d="M24.500,-0.000 C10.993,-0.000 -0.000,10.992 -0.000,24.500 C-0.000,38.007 10.993,49.000 24.500,49.000 C38.007,49.000 49.000,38.007 49.000,24.500 C49.000,10.992 38.007,-0.000 24.500,-0.000 L24.500,-0.000 ZM24.500,46.721 C18.756,46.721 13.531,44.513 9.581,40.924 C10.815,40.050 12.374,39.637 14.529,39.111 C16.749,38.568 20.025,38.279 19.854,35.593 C20.456,35.540 21.011,36.248 21.838,36.585 C24.441,37.653 27.647,37.033 29.512,35.321 C29.229,38.084 32.434,38.515 34.837,39.111 C36.886,39.619 38.391,39.973 39.613,40.741 C35.652,44.436 30.344,46.721 24.500,46.721 L24.500,46.721 ZM26.177,10.756 C31.183,11.187 34.560,16.825 33.220,22.676 C33.432,22.853 33.999,22.682 34.034,23.036 C34.182,25.096 33.621,27.186 32.051,27.824 C31.242,31.141 29.193,34.766 25.462,35.227 C20.840,35.800 18.242,31.496 17.427,27.824 C15.792,27.204 15.373,25.368 15.349,23.130 C15.432,22.794 15.869,22.806 16.164,22.682 C15.078,15.207 18.720,10.119 26.177,10.756 L26.177,10.756 Z"/>
</svg>