<svg 
 xmlns="http://www.w3.org/2000/svg"
 xmlns:xlink="http://www.w3.org/1999/xlink"
 width="50px" height="48px">
<path fill-rule="evenodd"  fill="rgb(26, 26, 26)"
 d="M46.012,0.000 L4.255,0.000 C2.058,0.000 -0.000,1.788 -0.000,3.987 C-0.000,6.187 2.058,7.974 4.255,7.974 L4.544,7.974 L4.544,48.000 L6.023,46.520 L6.185,46.520 L10.503,42.197 L15.210,46.909 L15.291,46.828 L15.436,46.973 L20.137,42.266 L24.838,46.973 L24.983,46.828 L25.128,46.973 L29.829,42.266 L34.529,46.973 L34.674,46.828 L34.755,46.909 L39.462,42.197 L43.780,46.520 L43.943,46.520 L45.421,48.000 L45.421,7.974 L46.018,7.974 C48.215,7.974 50.000,6.187 50.000,3.987 C50.000,1.788 48.209,0.000 46.012,0.000 L46.012,0.000 ZM46.354,5.664 L45.415,5.664 L45.415,2.321 L43.155,2.321 L43.155,6.012 L43.149,6.012 L43.149,42.516 L39.544,38.906 L39.462,38.987 L39.381,38.906 L34.674,43.618 L29.973,38.906 L29.829,39.051 L29.684,38.906 L24.983,43.613 L20.282,38.906 L20.137,39.051 L19.992,38.906 L15.291,43.618 L10.584,38.906 L10.503,38.987 L10.422,38.906 L6.816,42.516 L6.828,2.321 L4.544,2.321 L4.544,5.664 L3.692,5.664 C2.771,5.664 2.023,4.916 2.023,3.987 C2.023,3.064 2.771,2.316 3.692,2.316 L46.354,2.316 C47.276,2.316 48.029,3.064 48.029,3.987 C48.024,4.916 47.276,5.664 46.354,5.664 L46.354,5.664 ZM11.999,20.318 L24.131,20.318 C24.728,20.318 25.209,19.836 25.209,19.238 C25.209,18.641 24.728,18.159 24.131,18.159 L11.999,18.159 C11.402,18.159 10.920,18.641 10.920,19.238 C10.920,19.836 11.407,20.318 11.999,20.318 L11.999,20.318 ZM11.999,13.499 L30.941,13.499 C31.539,13.499 32.020,13.017 32.020,12.419 C32.020,11.822 31.539,11.340 30.941,11.340 L11.999,11.340 C11.402,11.340 10.920,11.822 10.920,12.419 C10.920,13.017 11.407,13.499 11.999,13.499 L11.999,13.499 ZM32.077,24.978 L11.999,24.978 C11.402,24.978 10.920,25.460 10.920,26.057 C10.920,26.655 11.402,27.137 11.999,27.137 L32.077,27.137 C32.675,27.137 33.156,26.655 33.156,26.057 C33.156,25.460 32.675,24.978 32.077,24.978 L32.077,24.978 ZM29.811,31.797 L11.999,31.797 C11.402,31.797 10.920,32.279 10.920,32.876 C10.920,33.474 11.402,33.956 11.999,33.956 L29.805,33.956 C30.403,33.956 30.883,33.474 30.883,32.876 C30.889,32.279 30.403,31.797 29.811,31.797 L29.811,31.797 Z"/>
</svg>