<svg 
 xmlns="http://www.w3.org/2000/svg"
 xmlns:xlink="http://www.w3.org/1999/xlink"
 width="45px" height="45px">
<path fill-rule="evenodd"  fill="rgb(223, 7, 21)"
 d="M18.238,24.325 L2.430,24.325 C1.089,24.325 -0.000,25.415 -0.000,26.756 L-0.000,42.569 C-0.000,43.911 1.089,45.000 2.430,45.000 L18.244,45.000 C19.585,45.000 20.674,43.911 20.674,42.569 L20.674,26.761 C20.674,25.420 19.580,24.325 18.238,24.325 L18.238,24.325 ZM18.238,-0.000 L2.430,-0.000 C1.089,-0.000 -0.000,1.089 -0.000,2.430 L-0.000,18.244 C-0.000,19.585 1.089,20.674 2.430,20.674 L18.244,20.674 C19.585,20.674 20.674,19.585 20.674,18.244 L20.674,2.436 C20.674,1.089 19.580,-0.000 18.238,-0.000 L18.238,-0.000 ZM42.564,24.325 L26.756,24.325 C25.415,24.325 24.325,25.415 24.325,26.756 L24.325,42.569 C24.325,43.911 25.415,45.000 26.756,45.000 L42.569,45.000 C43.911,45.000 45.000,43.911 45.000,42.569 L45.000,26.761 C45.000,25.420 43.905,24.325 42.564,24.325 L42.564,24.325 ZM42.564,-0.000 L26.756,-0.000 C25.415,-0.000 24.325,1.089 24.325,2.430 L24.325,18.244 C24.325,19.585 25.415,20.674 26.756,20.674 L42.569,20.674 C43.911,20.674 45.000,19.585 45.000,18.244 L45.000,2.436 C45.000,1.089 43.905,-0.000 42.564,-0.000 L42.564,-0.000 Z"/>
</svg>