<svg 
 xmlns="http://www.w3.org/2000/svg"
 xmlns:xlink="http://www.w3.org/1999/xlink"
 width="55px" height="49px">
<path fill-rule="evenodd"  fill="rgb(223, 7, 21)"
 d="M53.535,19.843 L27.912,0.265 C27.472,-0.082 26.857,-0.088 26.417,0.258 L0.469,19.836 C-0.061,20.250 -0.158,21.022 0.252,21.557 C0.493,21.867 0.848,22.031 1.216,22.031 C1.475,22.031 1.740,21.946 1.957,21.776 L5.199,19.332 L5.199,47.766 C5.199,48.447 5.742,48.994 6.417,48.994 L22.223,48.994 C22.892,48.994 23.440,48.447 23.440,47.766 L23.440,34.309 L30.744,34.309 L30.744,47.772 C30.744,48.094 31.250,48.410 31.479,48.641 C31.708,48.872 32.016,49.000 32.341,49.000 L47.792,49.000 C48.461,49.000 49.009,48.453 49.009,47.772 L49.009,19.466 L52.034,21.776 C52.564,22.195 53.330,22.098 53.739,21.563 C54.155,21.034 54.065,20.262 53.535,19.843 L53.535,19.843 Z"/>
</svg>