<svg 
 xmlns="http://www.w3.org/2000/svg"
 xmlns:xlink="http://www.w3.org/1999/xlink"
 width="50px" height="48px">
<path fill-rule="evenodd"  fill="rgb(223, 7, 21)"
 d="M46.018,7.974 L45.421,7.974 L45.421,48.000 L43.943,46.520 L43.780,46.520 L39.462,42.197 L34.755,46.909 L34.674,46.827 L34.529,46.973 L29.828,42.266 L25.128,46.973 L24.983,46.827 L24.838,46.973 L20.137,42.266 L15.436,46.973 L15.291,46.827 L15.210,46.909 L10.503,42.197 L6.185,46.520 L6.023,46.520 L4.544,48.000 L4.544,7.974 L4.254,7.974 C2.057,7.974 -0.000,6.186 -0.000,3.987 C-0.000,1.787 2.057,-0.000 4.254,-0.000 L46.012,-0.000 C48.209,-0.000 50.000,1.787 50.000,3.987 C50.000,6.186 48.215,7.974 46.018,7.974 ZM11.999,33.955 L29.805,33.955 C30.402,33.955 30.883,33.474 30.883,32.876 C30.889,32.278 30.402,31.797 29.811,31.797 L11.999,31.797 C11.401,31.797 10.920,32.278 10.920,32.876 C10.920,33.474 11.401,33.955 11.999,33.955 ZM30.941,11.340 L11.999,11.340 C11.401,11.340 10.920,11.822 10.920,12.419 C10.920,13.017 11.407,13.498 11.999,13.498 L30.941,13.498 C31.538,13.498 32.020,13.017 32.020,12.419 C32.020,11.822 31.538,11.340 30.941,11.340 ZM10.920,19.238 C10.920,19.836 11.407,20.317 11.999,20.317 L24.131,20.317 C24.728,20.317 25.209,19.836 25.209,19.238 C25.209,18.640 24.728,18.159 24.131,18.159 L11.999,18.159 C11.401,18.159 10.920,18.640 10.920,19.238 ZM32.077,24.978 L11.999,24.978 C11.401,24.978 10.920,25.459 10.920,26.057 C10.920,26.655 11.401,27.137 11.999,27.137 L32.077,27.137 C32.674,27.137 33.156,26.655 33.156,26.057 C33.156,25.459 32.674,24.978 32.077,24.978 Z"/>
</svg>