<svg 
 xmlns="http://www.w3.org/2000/svg"
 xmlns:xlink="http://www.w3.org/1999/xlink"
 width="50px" height="50px">
<path fill-rule="evenodd"  fill="rgb(179, 179, 179)"
 d="M48.034,34.732 C46.777,37.710 44.972,40.385 42.679,42.679 C40.380,44.972 37.705,46.777 34.732,48.034 C31.651,49.339 28.374,50.000 25.000,50.000 C21.620,50.000 18.349,49.335 15.268,48.034 C12.289,46.777 9.615,44.972 7.321,42.679 C5.027,40.380 3.223,37.705 1.966,34.732 C0.660,31.651 -0.000,28.374 -0.000,25.000 C-0.000,21.620 0.665,18.349 1.966,15.268 C3.223,12.289 5.027,9.615 7.321,7.321 C9.619,5.027 12.289,3.223 15.268,1.966 C18.349,0.660 21.625,-0.000 25.000,-0.000 C28.374,-0.000 31.646,0.665 34.732,1.966 C37.705,3.223 40.380,5.027 42.674,7.321 C44.967,9.619 46.772,12.289 48.029,15.268 C49.330,18.349 49.990,21.626 50.000,25.000 C50.000,28.379 49.334,31.651 48.034,34.732 ZM25.000,1.305 C11.932,1.305 1.305,11.937 1.305,25.000 C1.305,38.062 11.932,48.689 25.000,48.689 C38.057,48.689 48.689,38.057 48.689,25.000 C48.689,11.933 38.067,1.305 25.000,1.305 ZM38.167,34.241 C37.706,34.241 37.333,33.885 37.333,33.447 L37.333,14.377 C37.333,13.946 36.957,13.588 36.494,13.588 L20.447,13.588 C20.225,13.587 20.012,13.669 19.855,13.818 C19.697,13.967 19.608,14.169 19.608,14.380 L19.608,18.890 C19.608,19.197 19.422,19.477 19.132,19.608 L11.693,22.962 C11.158,23.234 10.667,24.012 10.667,24.591 L10.667,33.445 C10.667,33.884 10.293,34.239 9.833,34.239 C9.373,34.239 9.000,33.884 9.000,33.445 L9.000,24.591 C9.000,23.424 9.831,22.108 10.945,21.543 L17.942,18.387 L17.942,14.380 C17.942,13.748 18.206,13.141 18.676,12.695 C19.146,12.248 19.784,11.998 20.447,12.000 L36.494,12.000 C37.874,11.999 38.995,13.062 39.000,14.377 L39.000,33.447 C39.000,33.885 38.627,34.241 38.167,34.241 ZM14.000,26.294 L17.335,26.294 C17.794,26.293 18.165,25.939 18.167,25.502 L18.167,22.324 C18.167,21.885 18.540,21.530 19.000,21.530 C19.460,21.530 19.833,21.885 19.833,22.324 L19.833,25.502 C19.832,26.816 18.714,27.882 17.335,27.882 L14.000,27.882 C13.539,27.882 13.166,27.527 13.166,27.088 C13.166,26.650 13.539,26.294 14.000,26.294 ZM17.333,31.059 C19.349,31.059 21.030,32.423 21.416,34.235 L21.619,34.235 L26.584,34.235 C26.970,32.423 28.651,31.059 30.667,31.059 C32.968,31.059 34.833,32.837 34.833,35.029 C34.833,37.222 32.968,39.000 30.667,39.000 C28.651,39.000 26.970,37.636 26.584,35.824 L21.619,35.824 L21.416,35.824 C21.030,37.636 19.349,39.000 17.333,39.000 C15.032,39.000 13.166,37.222 13.166,35.029 C13.166,32.837 15.032,31.059 17.333,31.059 ZM30.667,37.412 C32.047,37.412 33.167,36.345 33.167,35.029 C33.167,33.714 32.047,32.647 30.667,32.647 C29.286,32.647 28.167,33.714 28.167,35.029 C28.167,36.345 29.286,37.412 30.667,37.412 ZM17.333,37.412 C18.714,37.412 19.833,36.345 19.833,35.029 C19.833,33.714 18.714,32.647 17.333,32.647 C15.953,32.647 14.833,33.714 14.833,35.029 C14.833,36.345 15.953,37.412 17.333,37.412 Z"/>
</svg>