<svg 
 xmlns="http://www.w3.org/2000/svg"
 xmlns:xlink="http://www.w3.org/1999/xlink"
 width="50px" height="50px">
<path fill-rule="evenodd"  fill="rgb(225, 33, 45)"
 d="M25.000,50.000 C11.193,50.000 -0.000,38.807 -0.000,25.000 C-0.000,11.193 11.193,-0.000 25.000,-0.000 C38.807,-0.000 50.000,11.193 50.000,25.000 C50.000,38.807 38.807,50.000 25.000,50.000 ZM17.333,39.000 C19.349,39.000 21.030,37.636 21.416,35.824 L21.619,35.824 L26.584,35.824 C26.970,37.636 28.651,39.000 30.667,39.000 C32.968,39.000 34.833,37.222 34.833,35.029 C34.833,32.837 32.968,31.059 30.667,31.059 C28.651,31.059 26.970,32.423 26.584,34.235 L21.619,34.235 L21.416,34.235 C21.030,32.423 19.349,31.059 17.333,31.059 C15.032,31.059 13.166,32.837 13.166,35.029 C13.166,37.222 15.032,39.000 17.333,39.000 ZM14.000,27.882 L17.335,27.882 C18.714,27.882 19.832,26.816 19.833,25.502 L19.833,22.324 C19.833,21.885 19.460,21.530 19.000,21.530 C18.540,21.530 18.167,21.885 18.167,22.324 L18.167,25.502 C18.165,25.939 17.794,26.293 17.335,26.294 L14.000,26.294 C13.539,26.294 13.166,26.650 13.166,27.088 C13.166,27.527 13.539,27.882 14.000,27.882 ZM39.000,14.377 C38.995,13.062 37.874,11.999 36.494,12.000 L20.447,12.000 C19.784,11.998 19.146,12.248 18.676,12.695 C18.206,13.141 17.942,13.748 17.942,14.380 L17.942,18.387 L10.945,21.543 C9.831,22.108 9.000,23.424 9.000,24.591 L9.000,33.445 C9.000,33.884 9.373,34.239 9.833,34.239 C10.293,34.239 10.667,33.884 10.667,33.445 L10.667,24.591 C10.667,24.012 11.158,23.234 11.693,22.962 L19.132,19.608 C19.422,19.477 19.608,19.197 19.608,18.890 L19.608,14.380 C19.608,14.169 19.697,13.967 19.855,13.818 C20.012,13.669 20.225,13.587 20.447,13.588 L36.494,13.588 C36.957,13.588 37.333,13.946 37.333,14.377 L37.333,33.447 C37.333,33.885 37.706,34.241 38.167,34.241 C38.627,34.241 39.000,33.885 39.000,33.447 L39.000,14.377 ZM17.333,32.647 C18.714,32.647 19.833,33.714 19.833,35.029 C19.833,36.345 18.714,37.412 17.333,37.412 C15.953,37.412 14.833,36.345 14.833,35.029 C14.833,33.714 15.953,32.647 17.333,32.647 ZM30.667,32.647 C32.047,32.647 33.167,33.714 33.167,35.029 C33.167,36.345 32.047,37.412 30.667,37.412 C29.286,37.412 28.167,36.345 28.167,35.029 C28.167,33.714 29.286,32.647 30.667,32.647 Z"/>
</svg>