<svg 
 xmlns="http://www.w3.org/2000/svg"
 xmlns:xlink="http://www.w3.org/1999/xlink"
 width="50px" height="50px">
<path fill-rule="evenodd"  fill="rgb(225, 33, 45)"
 d="M48.034,34.732 C46.777,37.710 44.972,40.385 42.679,42.679 C40.380,44.972 37.705,46.777 34.732,48.034 C31.651,49.339 28.374,50.000 25.000,50.000 C21.620,50.000 18.349,49.335 15.268,48.034 C12.289,46.777 9.615,44.972 7.321,42.679 C5.027,40.380 3.223,37.705 1.966,34.732 C0.660,31.651 -0.000,28.374 -0.000,25.000 C-0.000,21.620 0.665,18.349 1.966,15.268 C3.223,12.289 5.027,9.615 7.321,7.321 C9.619,5.027 12.289,3.223 15.268,1.966 C18.349,0.660 21.625,-0.000 25.000,-0.000 C28.374,-0.000 31.646,0.665 34.732,1.966 C37.705,3.223 40.380,5.027 42.674,7.321 C44.967,9.619 46.772,12.289 48.029,15.268 C49.330,18.349 49.990,21.626 50.000,25.000 C50.000,28.379 49.334,31.651 48.034,34.732 ZM37.000,24.000 L36.000,23.000 L31.000,23.000 L31.000,18.000 L14.000,18.000 L14.000,23.000 L14.000,28.000 L14.000,31.000 L18.000,31.000 L20.000,33.000 L22.000,31.000 L29.000,31.000 L31.000,33.000 L33.000,31.000 L37.000,31.000 L37.000,24.000 ZM16.000,26.000 L25.000,26.000 L25.000,28.000 L16.000,28.000 L16.000,26.000 ZM16.000,22.000 L22.000,22.000 L22.000,24.000 L16.000,24.000 L16.000,22.000 Z"/>
</svg>