<svg 
 xmlns="http://www.w3.org/2000/svg"
 xmlns:xlink="http://www.w3.org/1999/xlink"
 width="39px" height="39px">
<path fill-rule="evenodd"  fill="rgb(255, 255, 255)"
 d="M19.500,39.000 C8.730,39.000 -0.000,30.269 -0.000,19.500 C-0.000,8.730 8.730,-0.000 19.500,-0.000 C30.269,-0.000 39.000,8.730 39.000,19.500 C39.000,30.269 30.269,39.000 19.500,39.000 ZM31.000,14.000 C30.389,13.446 29.273,14.401 29.123,14.562 L17.022,25.979 L11.391,20.105 C11.231,19.933 10.500,18.989 9.279,19.797 C8.536,20.622 9.545,21.709 9.705,21.881 L17.000,29.000 L29.827,17.014 C31.026,16.163 32.022,14.927 31.000,14.000 ZM17.000,29.000 L17.000,26.000 L17.022,25.979 L17.320,26.290 L17.000,29.000 Z"/>
</svg>