<svg 
 xmlns="http://www.w3.org/2000/svg"
 xmlns:xlink="http://www.w3.org/1999/xlink"
 width="50px" height="50px">
<path fill-rule="evenodd"  fill="rgb(225, 33, 45)"
 d="M48.034,34.732 C46.777,37.710 44.972,40.385 42.679,42.679 C40.380,44.972 37.705,46.777 34.732,48.034 C31.651,49.340 28.374,50.000 25.000,50.000 C21.620,50.000 18.349,49.335 15.268,48.034 C12.289,46.777 9.615,44.972 7.321,42.679 C5.027,40.380 3.222,37.705 1.966,34.732 C0.660,31.651 -0.000,28.374 -0.000,25.000 C-0.000,21.620 0.665,18.349 1.966,15.268 C3.222,12.290 5.027,9.615 7.321,7.321 C9.619,5.027 12.289,3.223 15.268,1.966 C18.349,0.660 21.626,-0.000 25.000,-0.000 C28.374,-0.000 31.646,0.665 34.732,1.966 C37.705,3.223 40.380,5.027 42.674,7.321 C44.967,9.619 46.772,12.290 48.029,15.268 C49.330,18.349 49.990,21.626 50.000,25.000 C50.000,28.379 49.335,31.651 48.034,34.732 ZM29.523,10.754 L20.814,10.754 L20.814,12.060 L29.523,12.060 L29.523,10.754 ZM32.526,15.204 L17.200,15.204 L17.200,16.510 L32.526,16.510 L32.526,15.204 ZM32.795,20.808 L17.200,20.808 L17.200,22.115 L32.795,22.115 L32.795,20.808 ZM17.200,26.657 L17.200,27.964 L32.526,27.964 L32.526,26.657 L17.200,26.657 ZM32.795,32.414 L17.200,32.414 L17.200,33.720 L32.795,33.720 L32.795,32.414 ZM38.302,10.754 L33.221,10.754 L33.221,12.055 L36.996,12.055 L36.996,38.043 L12.964,38.043 L12.964,12.055 L17.033,12.055 L17.033,10.754 L11.658,10.754 L11.658,39.348 L38.302,39.348 L38.302,10.754 Z"/>
</svg>