<svg 
 xmlns="http://www.w3.org/2000/svg"
 xmlns:xlink="http://www.w3.org/1999/xlink"
 width="721.5px" height="192.5px">
<path fill-rule="evenodd"  stroke="rgb(225, 33, 45)" stroke-width="1px" stroke-linecap="butt" stroke-linejoin="miter" fill="rgb(255, 255, 255)"
 d="M700.500,191.500 L580.500,191.500 C580.500,187.082 576.918,183.500 572.500,183.500 C568.082,183.500 564.500,187.082 564.500,191.500 L20.500,191.500 C9.454,191.500 0.500,182.546 0.500,171.500 L0.500,20.500 C0.500,9.454 9.454,0.500 20.500,0.500 L562.500,0.500 C562.500,4.918 566.082,8.500 570.500,8.500 C574.918,8.500 578.500,4.918 578.500,0.500 L700.500,0.500 C711.546,0.500 720.500,9.454 720.500,20.500 L720.500,171.500 C720.500,182.546 711.546,191.500 700.500,191.500 Z"/>
</svg>