<svg 
 xmlns="http://www.w3.org/2000/svg"
 xmlns:xlink="http://www.w3.org/1999/xlink"
 width="40px" height="29px">
<path fill-rule="evenodd"  fill="rgb(217, 217, 217)"
 d="M40.000,27.792 C40.000,28.205 39.912,28.596 39.872,29.000 L37.366,29.000 C37.414,28.599 37.494,28.205 37.494,27.792 C37.488,21.883 32.586,17.062 26.460,16.941 C25.709,16.281 24.905,15.681 24.054,15.148 C24.189,14.846 24.262,14.517 24.367,14.203 C24.956,14.379 25.567,14.500 26.216,14.500 C29.677,14.500 32.482,11.795 32.482,8.458 C32.482,5.122 29.677,2.417 26.216,2.417 C24.752,2.422 23.336,2.926 22.219,3.840 C21.677,3.222 21.064,2.664 20.392,2.177 C21.987,0.782 24.062,0.006 26.216,-0.000 C30.056,0.004 33.447,2.415 34.585,5.951 C35.723,9.487 34.344,13.326 31.181,15.426 C36.488,17.394 39.993,22.308 40.000,27.792 L40.000,27.792 ZM18.650,17.842 C23.519,19.662 26.898,23.985 27.372,29.000 L24.835,29.000 C24.206,23.570 19.485,19.333 13.686,19.333 C7.887,19.333 3.165,23.570 2.534,29.000 L-0.000,29.000 C0.473,23.985 3.852,19.662 8.721,17.842 C5.553,15.745 4.170,11.902 5.308,8.363 C6.447,4.823 9.843,2.411 13.686,2.411 C17.529,2.411 20.925,4.823 22.063,8.363 C23.202,11.902 21.819,15.745 18.650,17.842 L18.650,17.842 ZM13.686,4.833 C10.226,4.833 7.421,7.538 7.421,10.875 C7.421,14.212 10.226,16.917 13.686,16.917 C17.146,16.917 19.951,14.212 19.951,10.875 C19.951,7.538 17.146,4.833 13.686,4.833 L13.686,4.833 Z"/>
</svg>