<svg 
 xmlns="http://www.w3.org/2000/svg"
 xmlns:xlink="http://www.w3.org/1999/xlink"
 width="38px" height="36px">
<path fill-rule="evenodd"  fill="rgb(217, 217, 217)"
 d="M23.030,29.426 C22.554,29.426 22.168,29.038 22.168,28.562 L22.168,26.231 L18.605,26.231 C18.129,26.231 17.743,25.843 17.743,25.366 C17.743,24.890 18.130,24.502 18.605,24.502 L22.168,24.502 L22.168,22.732 L18.802,22.732 C18.326,22.732 17.939,22.345 17.939,21.868 C17.939,21.391 18.326,21.004 18.802,21.004 L22.167,21.004 L22.167,19.766 L18.458,16.878 C18.276,16.737 18.160,16.533 18.131,16.304 C18.103,16.075 18.164,15.848 18.306,15.666 C18.598,15.289 19.141,15.222 19.517,15.514 L23.030,18.249 L26.543,15.514 C26.918,15.221 27.462,15.289 27.754,15.666 C27.895,15.848 27.957,16.074 27.928,16.304 C27.900,16.533 27.784,16.737 27.602,16.878 L23.893,19.766 L23.893,21.004 L27.259,21.004 C27.735,21.004 28.121,21.391 28.121,21.868 C28.121,22.345 27.735,22.732 27.259,22.732 L23.893,22.732 L23.893,24.502 L27.455,24.502 C27.931,24.502 28.318,24.890 28.318,25.366 C28.318,25.843 27.931,26.231 27.455,26.231 L23.893,26.231 L23.893,28.562 C23.893,29.039 23.506,29.426 23.030,29.426 ZM36.758,26.380 C37.501,26.639 38.000,27.335 38.000,28.112 L38.000,31.627 C38.000,34.042 36.045,36.000 33.635,36.000 L11.965,36.000 C11.412,36.000 10.964,35.551 10.964,34.998 C10.964,34.444 11.412,33.995 11.965,33.995 L33.634,33.995 C34.940,33.995 35.998,32.935 35.998,31.627 L35.998,28.237 C33.691,27.384 32.149,25.175 32.149,22.705 C32.149,20.235 33.691,18.026 35.998,17.174 L35.998,13.131 C35.998,11.823 34.940,10.763 33.634,10.763 L11.965,10.763 C11.412,10.763 10.964,10.314 10.964,9.760 C10.964,9.207 11.412,8.758 11.964,8.758 L33.634,8.758 C36.046,8.758 38.000,10.716 38.000,13.131 L38.000,17.299 C38.000,18.067 37.513,18.755 36.785,19.022 C35.925,19.337 35.144,19.866 34.697,20.667 C33.389,23.017 34.569,25.616 36.758,26.380 ZM36.654,7.970 C36.101,7.970 35.653,7.521 35.653,6.968 L35.653,4.373 C35.653,3.065 34.595,2.005 33.289,2.005 L4.710,2.005 C3.405,2.005 2.347,3.065 2.347,4.373 L2.347,6.968 C2.347,7.522 1.898,7.971 1.345,7.971 C0.793,7.971 0.345,7.522 0.345,6.968 L0.345,4.374 C0.345,1.958 2.299,0.000 4.710,0.000 L33.289,0.000 C35.701,0.000 37.655,1.958 37.655,4.374 L37.655,6.968 C37.655,7.522 37.207,7.970 36.654,7.970 ZM4.366,8.757 L8.423,8.757 C8.976,8.757 9.424,9.206 9.424,9.760 C9.424,10.314 8.976,10.762 8.423,10.762 L4.366,10.762 C3.060,10.762 2.002,11.823 2.002,13.131 L2.002,17.174 C4.309,18.025 5.851,20.235 5.851,22.705 C5.851,25.175 4.309,27.384 2.002,28.236 L2.002,31.627 C2.002,32.935 3.060,33.995 4.366,33.995 L8.423,33.995 C8.976,33.995 9.424,34.444 9.424,34.998 C9.424,35.551 8.976,36.000 8.423,36.000 L4.366,36.000 C1.955,36.000 -0.000,34.042 -0.000,31.626 L-0.000,28.111 C-0.000,27.344 0.488,26.655 1.216,26.389 C2.075,26.074 2.856,25.545 3.302,24.745 C4.611,22.395 3.431,19.794 1.242,19.031 C0.499,18.772 -0.000,18.076 -0.000,17.299 L-0.000,13.131 C-0.000,10.715 1.955,8.757 4.366,8.757 Z"/>
</svg>