<svg 
 xmlns="http://www.w3.org/2000/svg"
 xmlns:xlink="http://www.w3.org/1999/xlink"
 width="41px" height="42px">
<path fill-rule="evenodd"  fill="rgb(205, 205, 205)"
 d="M19.255,28.732 L8.296,17.595 C7.904,17.229 7.904,16.637 8.296,16.271 C8.689,15.906 9.326,15.906 9.718,16.271 L20.016,26.737 L30.315,16.271 C30.707,15.906 31.345,15.906 31.737,16.271 C32.130,16.638 32.130,17.229 31.737,17.595 L20.778,28.731 C20.569,28.926 20.291,29.009 20.017,28.996 C19.742,29.009 19.465,28.926 19.255,28.732 L19.255,28.732 Z"/>
<path fill-rule="evenodd"  stroke="rgb(204, 204, 204)" stroke-width="2px" stroke-linecap="butt" stroke-linejoin="miter" fill="none"
 d="M20.000,1.000 C30.493,1.000 39.000,9.730 39.000,20.500 C39.000,31.270 30.493,40.000 20.000,40.000 C9.507,40.000 1.000,31.270 1.000,20.500 C1.000,9.730 9.507,1.000 20.000,1.000 Z"/>
</svg>