<svg 
 xmlns="http://www.w3.org/2000/svg"
 xmlns:xlink="http://www.w3.org/1999/xlink"
 width="45px" height="43px">
<path fill-rule="evenodd"  fill="rgb(244, 246, 249)"
 d="M25.568,32.252 L25.568,15.356 C25.568,13.386 28.649,13.386 28.649,15.356 L28.649,32.249 C28.652,34.219 25.568,34.219 25.568,32.252 L25.568,32.252 ZM16.324,32.252 L16.324,15.356 C16.324,13.386 19.405,13.386 19.405,15.356 L19.405,32.249 C19.405,34.219 16.324,34.219 16.324,32.252 L16.324,32.252 ZM42.523,7.678 L34.818,7.678 L34.818,4.606 C34.818,2.060 32.745,-0.000 30.240,-0.000 L14.782,-0.000 C13.556,-0.002 12.381,0.483 11.514,1.347 C10.647,2.210 10.159,3.383 10.158,4.606 L10.158,7.678 L2.453,7.678 C0.480,7.678 0.480,10.748 2.453,10.748 L42.520,10.748 C44.496,10.748 44.496,7.678 42.523,7.678 L42.523,7.678 ZM13.242,4.606 C13.242,3.789 13.964,3.069 14.782,3.069 L30.240,3.069 C31.057,3.069 31.733,3.696 31.733,4.606 L31.733,7.678 L13.242,7.678 L13.242,4.606 ZM33.276,43.000 L11.700,43.000 C10.476,43.001 9.301,42.516 8.434,41.652 C7.568,40.788 7.081,39.617 7.080,38.394 L7.080,15.356 C7.080,14.444 7.801,13.820 8.619,13.820 C9.437,13.820 10.161,14.444 10.161,15.356 L10.161,38.391 C10.161,39.208 10.886,39.928 11.700,39.928 L33.276,39.928 C34.117,39.905 34.794,39.231 34.818,38.391 L34.818,15.405 C34.818,13.389 37.899,13.389 37.899,15.405 L37.899,38.394 C37.896,40.940 35.826,43.002 33.276,43.000 L33.276,43.000 Z"/>
</svg>