<svg 
 xmlns="http://www.w3.org/2000/svg"
 xmlns:xlink="http://www.w3.org/1999/xlink"
 width="36px" height="35px">
<path fill-rule="evenodd"  fill="rgb(255, 255, 255)"
 d="M35.531,21.159 C35.375,22.193 34.750,22.909 33.969,22.909 L33.813,22.909 C31.236,22.909 29.128,25.057 29.128,27.761 C29.128,28.636 29.518,29.591 29.518,29.591 C29.909,30.545 29.596,31.659 28.816,32.216 L28.737,32.216 L24.208,34.841 L24.130,34.841 C23.896,34.920 23.583,35.000 23.271,35.000 C22.646,35.000 21.943,34.682 21.553,34.284 C21.007,33.648 19.210,31.977 17.805,31.977 C16.399,31.977 14.603,33.648 14.056,34.204 C13.666,34.682 13.041,34.920 12.338,34.920 C12.026,34.920 11.714,34.841 11.479,34.761 L11.401,34.761 L7.028,32.216 L6.950,32.216 C6.169,31.659 5.857,30.466 6.247,29.591 C6.247,29.591 6.638,28.636 6.638,27.761 C6.638,25.136 4.529,22.909 1.952,22.909 C1.250,22.909 0.625,22.273 0.391,21.159 C0.391,21.079 -0.000,19.091 -0.000,17.500 C-0.000,15.909 0.391,13.920 0.391,13.841 C0.547,12.807 1.171,12.091 1.952,12.091 L2.108,12.091 C4.685,12.091 6.794,9.943 6.794,7.239 C6.794,6.364 6.403,5.409 6.403,5.409 C5.935,4.614 6.247,3.420 7.106,2.864 L7.184,2.864 L11.870,0.239 L11.948,0.239 C12.104,0.080 12.338,-0.000 12.651,-0.000 C13.275,-0.000 13.900,0.239 14.369,0.716 C14.915,1.273 16.633,2.864 18.039,2.864 C19.445,2.864 21.163,1.352 21.709,0.795 C22.100,0.318 22.725,0.080 23.349,0.080 C23.661,0.080 23.974,0.159 24.208,0.239 L24.286,0.239 L28.816,2.784 L28.894,2.784 C29.675,3.341 29.987,4.534 29.596,5.409 C29.596,5.409 29.206,6.364 29.206,7.239 C29.206,9.864 31.314,12.091 33.891,12.091 L34.047,12.091 C34.750,12.091 35.375,12.727 35.609,13.841 C35.609,13.920 36.000,15.909 36.000,17.500 C35.922,19.091 35.531,21.079 35.531,21.159 L35.531,21.159 ZM34.047,14.159 C33.969,13.920 33.969,13.841 33.891,13.761 C30.456,13.761 27.644,10.898 27.644,7.318 C27.644,6.205 28.034,5.091 28.191,4.852 C28.269,4.614 28.191,4.295 28.034,4.136 L23.661,1.670 L23.427,1.670 C23.193,1.670 22.959,1.750 22.881,1.909 C22.646,2.148 20.382,4.534 18.039,4.534 C15.696,4.534 13.432,2.148 13.197,1.909 C13.119,1.670 12.885,1.591 12.651,1.591 L12.416,1.591 L7.887,4.136 C7.731,4.295 7.653,4.614 7.731,4.852 C7.731,4.852 8.278,6.125 8.278,7.318 C8.278,10.818 5.466,13.761 2.030,13.761 C1.952,13.841 1.952,14.000 1.874,14.159 C1.874,14.159 1.562,16.068 1.562,17.500 C1.562,18.932 1.874,20.841 1.874,20.841 C1.952,21.079 1.952,21.159 2.030,21.239 C5.466,21.239 8.278,24.102 8.278,27.682 C8.278,28.716 7.887,29.750 7.731,30.148 C7.653,30.386 7.731,30.704 7.887,30.864 L12.182,33.330 L12.416,33.330 C12.651,33.330 12.885,33.250 12.963,33.091 C13.041,33.011 15.462,30.307 17.883,30.307 C20.304,30.307 22.568,32.852 22.803,33.091 C22.881,33.170 23.115,33.330 23.349,33.330 L23.583,33.330 L28.034,30.784 C28.191,30.625 28.269,30.307 28.191,30.068 C28.113,29.909 27.644,28.795 27.644,27.602 C27.644,24.102 30.456,21.159 33.891,21.159 C33.969,21.079 33.969,20.920 34.047,20.761 C34.047,20.761 34.360,18.852 34.360,17.420 C34.360,16.068 34.047,14.159 34.047,14.159 L34.047,14.159 ZM17.961,23.864 C14.525,23.864 11.714,21.000 11.714,17.500 C11.714,14.000 14.525,11.136 17.961,11.136 C21.397,11.136 24.208,14.000 24.208,17.500 C24.208,21.000 21.397,23.864 17.961,23.864 L17.961,23.864 ZM17.961,12.648 C15.384,12.648 13.197,14.795 13.197,17.500 C13.197,20.204 15.306,22.352 17.961,22.352 C20.616,22.352 22.725,20.204 22.725,17.500 C22.725,14.795 20.538,12.648 17.961,12.648 L17.961,12.648 Z"/>
</svg>