<svg 
 xmlns="http://www.w3.org/2000/svg"
 xmlns:xlink="http://www.w3.org/1999/xlink"
 width="39px" height="39px">
<path fill-rule="evenodd"  fill="rgb(217, 217, 217)"
 d="M19.568,26.573 C20.763,26.573 21.733,27.542 21.733,28.737 L21.733,28.737 C21.733,29.932 20.763,30.901 19.568,30.901 C18.304,30.901 17.403,30.033 17.403,28.737 C17.403,27.542 18.372,26.573 19.568,26.573 ZM19.657,11.394 C18.555,11.394 17.640,11.708 16.899,12.334 C16.454,12.710 15.806,13.316 15.534,13.815 C15.022,14.756 14.524,15.059 13.859,14.961 L13.605,14.912 C12.377,14.552 11.738,13.422 12.301,12.252 C12.694,11.436 13.268,10.693 14.023,10.027 C15.476,8.744 17.102,8.100 19.466,8.100 C21.949,8.100 23.646,8.752 25.117,10.048 C26.587,11.344 27.039,12.855 27.043,14.574 C27.043,15.527 26.772,16.433 26.234,17.284 C25.696,18.139 24.824,19.299 23.057,20.764 C22.138,21.527 21.575,22.136 21.354,22.598 C21.256,22.802 21.181,23.076 21.130,23.420 C20.991,24.360 20.478,25.079 19.266,25.079 C18.385,25.079 17.457,24.743 17.462,23.531 C17.468,22.256 17.598,21.730 18.022,20.908 C18.441,20.091 19.284,19.164 20.546,18.139 C21.809,17.115 22.563,16.441 22.809,16.124 C23.186,15.620 23.381,15.065 23.381,14.460 C23.381,13.617 23.042,12.898 22.372,12.296 C21.699,11.695 20.796,11.394 19.657,11.394 ZM30.680,35.469 C24.671,39.670 16.906,40.158 10.412,36.746 C9.726,36.386 9.462,35.538 9.822,34.852 C10.183,34.168 11.031,33.901 11.716,34.264 C17.277,37.183 23.924,36.766 29.071,33.170 C36.619,27.895 38.464,17.467 33.186,9.924 C27.908,2.381 17.471,0.539 9.929,5.812 C2.381,11.087 0.536,21.515 5.814,29.058 C6.258,29.693 6.102,30.567 5.468,31.011 C4.832,31.457 3.958,31.300 3.514,30.665 C-2.650,21.855 -0.494,9.675 8.320,3.514 C10.791,1.788 13.528,0.714 16.321,0.256 C23.495,-0.917 31.050,1.977 35.486,8.318 C41.650,17.127 39.494,29.307 30.680,35.469 Z"/>
</svg>