<svg 
 xmlns="http://www.w3.org/2000/svg"
 xmlns:xlink="http://www.w3.org/1999/xlink"
 width="71px" height="71px">
<path fill-rule="evenodd"  fill="rgb(225, 33, 45)"
 d="M35.500,-0.000 C15.894,-0.000 0.000,15.894 0.000,35.500 C0.000,55.106 15.894,71.000 35.500,71.000 C55.106,71.000 71.000,55.106 71.000,35.500 C71.000,15.894 55.106,-0.000 35.500,-0.000 L35.500,-0.000 ZM57.499,49.140 C57.499,49.140 57.350,52.024 54.494,52.430 L16.791,52.430 C16.791,52.430 14.530,52.295 14.083,49.370 L13.999,32.002 L57.499,32.002 L57.499,49.140 ZM57.499,21.097 L57.499,26.417 L13.999,26.396 L14.083,20.934 C14.550,18.599 16.804,18.538 16.804,18.538 L54.372,18.538 C57.540,18.863 57.499,21.097 57.499,21.097 L57.499,21.097 Z"/>
</svg>