<svg 
 xmlns="http://www.w3.org/2000/svg"
 xmlns:xlink="http://www.w3.org/1999/xlink"
 width="72px" height="72px">
<path fill-rule="evenodd"  fill="rgb(225, 33, 45)"
 d="M72.000,36.000 C72.000,55.882 55.882,72.000 36.000,72.000 C16.118,72.000 -0.000,55.882 -0.000,36.000 C-0.000,16.118 16.118,-0.000 36.000,-0.000 C55.882,-0.000 72.000,16.118 72.000,36.000 ZM15.347,40.063 L31.939,40.063 C33.079,40.057 34.000,39.135 34.000,38.000 C34.000,36.853 33.077,35.938 31.939,35.938 L15.347,35.938 C14.207,35.943 13.286,36.865 13.286,38.000 C13.286,39.147 14.208,40.063 15.347,40.063 ZM36.066,23.562 L15.362,23.562 C14.812,23.562 14.284,23.779 13.895,24.165 C13.505,24.552 13.286,25.077 13.286,25.625 C13.286,26.772 14.216,27.687 15.362,27.687 L36.066,27.687 C36.616,27.688 37.144,27.471 37.533,27.085 C37.923,26.698 38.142,26.173 38.143,25.625 C38.143,24.478 37.213,23.562 36.066,23.562 ZM56.111,25.378 L38.143,46.250 L35.362,54.556 C35.182,55.094 35.460,55.343 35.980,55.113 L44.357,51.406 L62.325,30.534 C62.506,30.327 62.594,30.057 62.570,29.784 C62.547,29.511 62.413,29.260 62.200,29.087 L57.585,25.257 C57.142,24.894 56.489,24.948 56.111,25.378 Z"/>
</svg>