<svg 
 xmlns="http://www.w3.org/2000/svg"
 xmlns:xlink="http://www.w3.org/1999/xlink"
 width="72px" height="72px">
<path fill-rule="evenodd"  fill="rgb(225, 33, 45)"
 d="M36.000,72.000 C16.118,72.000 -0.000,55.882 -0.000,36.000 C-0.000,16.118 16.118,-0.000 36.000,-0.000 C55.882,-0.000 72.000,16.118 72.000,36.000 C72.000,55.882 55.882,72.000 36.000,72.000 ZM39.340,50.834 C39.340,51.720 40.018,52.485 40.900,52.578 C41.810,52.690 42.692,52.802 43.518,52.951 L43.518,49.379 C43.324,49.379 43.092,49.351 42.869,49.295 L42.869,48.120 C42.869,47.150 42.070,46.348 41.104,46.348 C40.139,46.348 39.340,47.150 39.340,48.120 L39.340,50.834 ZM38.059,43.848 C52.971,43.848 54.429,38.625 54.569,37.572 L52.832,37.348 L51.105,36.965 C50.789,37.907 47.864,40.304 38.059,40.304 C37.093,40.304 36.294,41.106 36.294,42.076 C36.294,43.046 37.093,43.848 38.059,43.848 ZM15.764,60.935 C16.730,60.935 17.528,60.133 17.528,59.163 C17.528,56.682 22.617,53.539 31.141,52.597 C32.023,52.513 32.701,51.739 32.701,50.853 L32.701,48.139 C32.701,47.542 32.385,47.001 31.902,46.656 C28.290,44.286 25.848,39.353 25.848,34.382 C25.820,22.518 31.615,21.184 35.988,21.184 C40.361,21.184 46.193,22.555 46.193,34.400 C46.193,35.371 46.992,36.172 47.957,36.172 C48.923,36.172 49.722,35.371 49.722,34.400 C49.722,20.560 42.274,17.678 36.025,17.678 C29.776,17.678 22.329,20.588 22.329,34.400 C22.329,40.248 25.003,45.900 29.173,49.071 L29.173,49.332 C19.906,50.666 14.000,54.462 14.000,59.163 C14.000,60.133 14.798,60.935 15.764,60.935 ZM59.081,31.490 C59.007,30.660 58.468,29.942 57.670,29.774 L55.451,29.206 C54.745,19.049 46.276,11.000 35.988,11.000 C25.505,11.000 16.953,19.338 16.498,29.746 L15.189,30.856 C14.789,31.201 14.566,31.686 14.566,32.199 L14.566,39.166 C14.566,40.136 15.365,40.938 16.331,40.938 C17.297,40.938 18.095,40.136 18.095,39.166 L18.095,33.029 L19.404,31.947 C19.803,31.602 20.026,31.118 20.026,30.604 C20.026,21.726 27.213,14.535 36.025,14.535 C44.837,14.535 52.024,21.753 52.024,30.604 C52.024,31.407 52.563,32.115 53.361,32.320 L55.553,32.862 L55.553,39.194 C55.553,40.164 56.351,40.966 57.317,40.966 C58.283,40.966 59.081,40.164 59.081,39.194 L59.081,31.490 ZM61.793,52.419 L56.983,52.419 L56.983,47.570 C56.983,46.898 56.444,46.357 55.775,46.357 L55.664,46.357 C54.996,46.357 54.457,46.917 54.457,47.570 L54.457,52.419 L49.629,52.419 C48.960,52.419 48.421,52.961 48.421,53.632 L48.421,53.744 C48.421,54.415 48.960,54.956 49.629,54.956 L54.457,54.956 L54.457,59.787 C54.457,60.459 54.996,61.000 55.664,61.000 L55.775,61.000 C56.444,61.000 56.983,60.459 56.983,59.787 L56.983,54.956 L61.793,54.956 C62.461,54.956 63.000,54.415 63.000,53.744 L63.000,53.632 L63.000,53.632 C63.000,52.961 62.461,52.419 61.793,52.419 Z"/>
</svg>