<svg 
 xmlns="http://www.w3.org/2000/svg"
 xmlns:xlink="http://www.w3.org/1999/xlink"
 width="72px" height="72px">
<path fill-rule="evenodd"  fill="rgb(225, 33, 45)"
 d="M36.000,-0.000 C16.118,-0.000 -0.000,16.117 -0.000,35.999 C-0.000,55.882 16.118,72.000 36.000,72.000 C55.883,72.000 72.000,55.881 72.000,35.999 C72.000,16.118 55.883,-0.000 36.000,-0.000 L36.000,-0.000 ZM33.372,26.819 L33.372,16.307 L38.628,16.307 L38.628,26.819 L43.885,26.819 L36.000,37.332 L28.115,26.819 L33.372,26.819 ZM57.026,50.455 C57.026,53.356 54.673,55.711 51.769,55.711 L20.230,55.711 C17.326,55.711 14.974,53.356 14.974,50.455 L14.974,39.942 L20.230,16.300 L20.230,16.289 L25.487,16.289 L25.487,18.917 L22.346,18.917 L17.844,39.942 L28.115,39.942 L33.371,45.198 L38.628,45.198 L43.884,39.942 L54.155,39.942 L49.653,18.917 L46.513,18.917 L46.513,16.289 L51.769,16.289 L51.769,16.299 L57.025,39.942 L57.025,50.455 L57.026,50.455 Z"/>
</svg>