<svg 
 xmlns="http://www.w3.org/2000/svg"
 xmlns:xlink="http://www.w3.org/1999/xlink"
 width="34px" height="34px">
<path fill-rule="evenodd"  fill="rgb(255, 255, 255)"
 d="M15.303,25.729 C18.233,25.440 20.940,24.102 22.932,21.963 C23.266,21.602 23.788,21.543 24.208,21.758 C24.245,21.774 24.275,21.799 24.310,21.819 C24.355,21.849 24.406,21.864 24.447,21.901 C24.461,21.914 24.466,21.932 24.479,21.945 C24.513,21.974 24.554,21.989 24.584,22.023 L33.724,32.207 C34.124,32.651 34.084,33.332 33.634,33.727 C33.183,34.122 32.495,34.082 32.095,33.637 L23.656,24.235 C21.414,26.268 18.567,27.538 15.515,27.841 C13.621,28.027 11.743,27.841 9.936,27.286 C8.193,26.752 6.590,25.898 5.173,24.749 C3.756,23.600 2.593,22.216 1.720,20.632 C0.813,18.992 0.259,17.209 0.071,15.336 C-0.118,13.464 0.071,11.608 0.632,9.821 C1.172,8.098 2.036,6.514 3.198,5.113 C4.360,3.712 5.761,2.563 7.363,1.700 C9.022,0.803 10.826,0.255 12.720,0.070 C14.615,-0.116 16.493,0.070 18.300,0.625 C20.043,1.159 21.645,2.012 23.063,3.161 C24.480,4.310 25.642,5.694 26.516,7.278 C27.419,8.918 27.977,10.701 28.165,12.574 C28.293,13.829 28.246,15.087 28.034,16.319 C27.933,16.897 27.379,17.285 26.795,17.186 C26.210,17.086 25.817,16.538 25.918,15.961 C26.100,14.918 26.136,13.849 26.029,12.783 C25.377,6.292 19.502,1.534 12.932,2.181 C6.362,2.829 1.555,8.633 2.207,15.127 C2.859,21.618 8.733,26.376 15.303,25.729 Z"/>
</svg>