<svg 
 xmlns="http://www.w3.org/2000/svg"
 xmlns:xlink="http://www.w3.org/1999/xlink"
 width="34px" height="25px">
<path fill-rule="evenodd"  fill="rgb(255, 255, 255)"
 d="M29.954,0.000 C31.182,0.000 32.164,0.320 32.899,0.955 C33.633,1.591 34.000,2.558 34.000,3.848 L34.000,20.933 C34.000,21.487 33.900,22.010 33.698,22.505 C33.495,22.996 33.220,23.429 32.868,23.799 C32.516,24.170 32.103,24.462 31.629,24.676 C31.155,24.891 30.658,25.000 30.134,25.000 L3.805,25.000 C3.281,25.000 2.788,24.899 2.325,24.692 C1.862,24.485 1.461,24.216 1.117,23.877 C0.776,23.538 0.501,23.144 0.302,22.692 C0.103,22.236 -0.000,21.752 -0.000,21.241 L-0.000,3.786 C-0.000,2.679 0.333,1.770 0.998,1.061 C1.663,0.351 2.597,0.000 3.805,0.000 L29.954,0.000 ZM8.486,5.692 C8.103,5.692 7.740,5.763 7.400,5.907 C7.059,6.051 6.757,6.250 6.493,6.507 C6.233,6.765 6.027,7.073 5.874,7.431 C5.721,7.790 5.648,8.176 5.648,8.585 C5.648,8.995 5.725,9.377 5.874,9.724 C6.023,10.071 6.229,10.379 6.493,10.648 C6.753,10.913 7.056,11.124 7.400,11.280 C7.740,11.432 8.103,11.510 8.486,11.510 C8.910,11.510 9.296,11.432 9.648,11.280 C10.000,11.124 10.302,10.917 10.555,10.648 C10.807,10.383 11.006,10.075 11.159,9.724 C11.308,9.377 11.384,8.995 11.384,8.585 C11.384,7.743 11.113,7.053 10.570,6.507 C10.027,5.965 9.331,5.692 8.486,5.692 L8.486,5.692 ZM13.227,16.344 C13.227,15.954 13.151,15.580 13.002,15.221 C12.853,14.863 12.650,14.555 12.398,14.297 C12.145,14.040 11.843,13.837 11.491,13.681 C11.139,13.529 10.772,13.451 10.390,13.451 L6.616,13.451 C5.832,13.451 5.166,13.732 4.623,14.297 C4.080,14.863 3.809,15.545 3.809,16.344 L3.809,19.241 L13.227,19.241 L13.227,16.344 ZM27.235,19.393 C27.637,19.393 27.935,19.292 28.126,19.085 C28.317,18.879 28.413,18.633 28.413,18.348 C28.413,18.060 28.302,17.810 28.080,17.596 C27.859,17.381 27.549,17.272 27.143,17.272 L18.145,17.272 C17.744,17.272 17.442,17.381 17.239,17.596 C17.036,17.810 16.937,18.064 16.937,18.348 C16.937,18.637 17.036,18.883 17.239,19.085 C17.442,19.292 17.732,19.393 18.115,19.393 L27.235,19.393 ZM27.266,15.420 C27.667,15.420 27.962,15.319 28.141,15.112 C28.321,14.906 28.413,14.660 28.413,14.375 C28.413,14.067 28.329,13.810 28.157,13.607 C27.985,13.401 27.698,13.299 27.296,13.299 L18.057,13.299 C17.656,13.299 17.361,13.401 17.182,13.607 C17.002,13.814 16.910,14.067 16.910,14.375 C16.910,14.664 16.994,14.910 17.166,15.112 C17.338,15.319 17.625,15.420 18.027,15.420 L27.266,15.420 ZM27.296,11.513 C27.598,11.513 27.859,11.412 28.080,11.206 C28.302,10.999 28.413,10.753 28.413,10.469 C28.413,10.180 28.302,9.950 28.080,9.775 C27.859,9.599 27.598,9.513 27.296,9.513 L21.166,9.513 C20.864,9.513 20.608,9.599 20.398,9.775 C20.187,9.950 20.080,10.180 20.080,10.469 C20.080,10.757 20.187,11.003 20.398,11.206 C20.608,11.412 20.864,11.513 21.166,11.513 L27.296,11.513 Z"/>
</svg>