<svg 
 xmlns="http://www.w3.org/2000/svg"
 xmlns:xlink="http://www.w3.org/1999/xlink"
 width="48px" height="64px">
<path fill-rule="evenodd"  fill="rgb(225, 33, 45)"
 d="M47.762,56.374 C47.452,56.867 46.894,57.132 46.329,57.055 L38.424,55.861 L34.472,63.213 C34.213,63.698 33.718,63.999 33.181,64.000 C32.608,63.969 32.104,63.599 31.890,63.051 L25.751,47.223 C25.175,47.268 24.599,47.314 24.012,47.315 C23.451,47.315 22.895,47.292 22.341,47.251 L16.213,63.051 C15.999,63.599 15.495,63.969 14.922,64.000 L14.843,64.000 C14.306,63.999 13.811,63.698 13.552,63.213 L9.679,55.861 L1.669,56.973 C1.104,57.051 0.545,56.786 0.236,56.293 C-0.074,55.800 -0.080,55.167 0.220,54.667 L8.457,41.059 C6.048,38.777 4.090,35.954 2.786,32.711 C-0.770,23.871 1.195,13.695 7.766,6.930 C14.337,0.164 24.219,-1.860 32.804,1.801 C41.390,5.463 46.987,14.089 46.987,23.658 C46.980,30.561 44.086,36.753 39.503,41.077 L47.778,54.749 C48.078,55.248 48.072,55.881 47.762,56.374 ZM4.383,53.582 L10.285,52.714 L10.522,52.687 C11.059,52.687 11.554,52.989 11.813,53.474 L14.632,58.900 L19.269,46.795 C16.195,46.128 13.319,44.821 10.793,42.990 L4.383,53.582 ZM43.062,23.685 C43.068,18.478 41.065,13.482 37.492,9.797 C33.918,6.113 29.069,4.043 24.012,4.043 L24.012,4.070 C13.491,4.070 4.963,12.852 4.963,23.685 C4.963,34.518 13.491,43.300 24.012,43.300 C34.533,43.300 43.062,34.518 43.062,23.685 ZM37.157,43.031 C34.673,44.823 31.836,46.128 28.767,46.796 L33.392,58.872 L36.238,53.446 C36.529,52.887 37.128,52.573 37.739,52.660 L43.641,53.528 L37.157,43.031 ZM24.012,36.762 C16.979,36.762 11.274,30.899 11.260,23.658 C11.260,22.819 11.920,22.139 12.735,22.139 C13.550,22.139 14.211,22.819 14.211,23.658 C14.211,27.263 16.079,30.595 19.112,32.398 C22.144,34.201 25.880,34.201 28.913,32.398 C31.946,30.595 33.814,27.263 33.814,23.658 C33.814,22.819 34.474,22.139 35.289,22.139 C36.104,22.139 36.765,22.819 36.765,23.658 C36.750,30.899 31.045,36.762 24.012,36.762 Z"/>
</svg>