<svg 
 xmlns="http://www.w3.org/2000/svg"
 xmlns:xlink="http://www.w3.org/1999/xlink"
 width="58px" height="58px">
<path fill-rule="evenodd"  fill="rgb(225, 33, 45)"
 d="M29.000,58.000 C12.984,58.000 -0.000,45.017 -0.000,29.000 C-0.000,12.984 12.984,-0.000 29.000,-0.000 C45.017,-0.000 58.000,12.984 58.000,29.000 C58.000,45.017 45.017,58.000 29.000,58.000 ZM29.000,3.625 C15.008,3.625 3.625,15.008 3.625,29.000 C3.625,42.992 15.008,54.431 29.000,54.431 C42.992,54.431 54.375,42.992 54.375,29.000 C54.375,15.008 42.992,3.625 29.000,3.625 ZM36.804,39.382 L27.833,30.411 C27.784,30.363 27.739,30.312 27.698,30.260 C27.382,29.934 27.187,29.490 27.187,29.000 L27.187,10.875 C27.187,9.874 27.999,9.062 29.000,9.062 C30.001,9.062 30.812,9.874 30.812,10.875 L30.812,28.264 L39.368,36.819 C40.076,37.527 40.076,38.675 39.368,39.382 C38.660,40.090 37.512,40.090 36.804,39.382 Z"/>
</svg>