<svg 
 xmlns="http://www.w3.org/2000/svg"
 xmlns:xlink="http://www.w3.org/1999/xlink"
 width="64px" height="60px">
<path fill-rule="evenodd"  fill="rgb(225, 33, 45)"
 d="M49.679,59.999 C49.126,59.999 48.581,59.866 48.095,59.611 L31.997,51.285 L15.903,59.611 C14.493,60.317 12.768,59.993 11.731,58.827 C11.083,58.083 10.808,57.099 10.979,56.139 L14.062,38.474 L1.012,25.965 C0.089,25.084 -0.237,23.770 0.172,22.578 C0.568,21.391 1.624,20.524 2.896,20.343 L20.902,17.771 L28.957,1.712 C30.100,-0.573 33.893,-0.573 35.040,1.712 L43.099,17.771 L61.101,20.343 C62.377,20.526 63.420,21.383 63.825,22.578 C64.234,23.771 63.908,25.087 62.985,25.969 L49.938,38.478 L53.022,56.146 C53.190,57.103 52.915,58.083 52.271,58.825 C51.627,59.568 50.678,59.997 49.679,59.999 L49.679,59.999 ZM4.668,24.014 L17.091,35.925 C17.879,36.682 18.239,37.765 18.054,38.827 L15.111,55.704 L30.413,47.708 C31.406,47.208 32.587,47.208 33.581,47.708 L48.870,55.615 L45.943,38.831 C45.754,37.764 46.118,36.675 46.915,35.917 L59.329,24.014 L42.187,21.566 C41.077,21.407 40.121,20.723 39.636,19.742 L31.997,4.518 L24.357,19.746 C23.869,20.723 22.914,21.404 21.806,21.562 L4.668,24.014 Z"/>
</svg>