<svg 
 xmlns="http://www.w3.org/2000/svg"
 xmlns:xlink="http://www.w3.org/1999/xlink"
 width="62px" height="47px">
<path fill-rule="evenodd"  fill="rgb(225, 33, 45)"
 d="M56.369,47.000 L5.631,47.000 C2.526,47.000 -0.000,44.469 -0.000,41.359 L-0.000,5.641 C-0.000,2.530 2.526,-0.000 5.631,-0.000 L56.369,-0.000 C59.474,-0.000 62.000,2.530 62.000,5.641 L62.000,41.359 C62.000,44.469 59.474,47.000 56.369,47.000 ZM58.125,5.641 C58.125,4.671 57.338,3.882 56.369,3.882 L5.631,3.882 C4.662,3.882 3.875,4.671 3.875,5.641 L3.875,10.450 L58.125,10.450 L58.125,5.641 ZM58.125,14.333 L3.875,14.333 L3.875,22.992 L58.125,22.992 L58.125,14.333 ZM58.125,26.874 L3.875,26.874 L3.875,41.359 C3.875,42.328 4.662,43.118 5.631,43.118 L56.369,43.118 C57.338,43.118 58.125,42.328 58.125,41.359 L58.125,26.874 ZM29.021,37.225 L9.244,37.225 C8.174,37.225 7.307,36.356 7.307,35.284 C7.307,34.212 8.174,33.343 9.244,33.343 L29.021,33.343 C30.092,33.343 30.958,34.212 30.958,35.284 C30.958,36.356 30.091,37.225 29.021,37.225 Z"/>
</svg>