<svg 
 xmlns="http://www.w3.org/2000/svg"
 xmlns:xlink="http://www.w3.org/1999/xlink"
 width="33px" height="30px">
<path fill-rule="evenodd"  fill="rgb(255, 255, 255)"
 d="M32.763,9.141 L27.808,0.801 C27.519,0.320 26.996,-0.000 26.397,-0.000 L6.598,-0.000 C5.999,-0.000 5.476,0.320 5.183,0.809 L0.236,9.141 C-0.121,9.745 -0.069,10.510 0.375,11.054 L15.223,29.387 L15.227,29.391 C15.528,29.760 15.984,30.000 16.499,30.000 C17.015,30.000 17.471,29.764 17.776,29.391 L32.624,11.058 C33.068,10.510 33.124,9.745 32.763,9.141 L32.763,9.141 ZM26.148,10.029 L17.562,20.603 C17.308,20.916 16.943,21.076 16.571,21.080 C16.547,21.084 16.523,21.080 16.495,21.080 C16.472,21.080 16.448,21.084 16.420,21.080 C16.052,21.071 15.683,20.916 15.429,20.603 L6.852,10.029 C6.392,9.465 6.475,8.632 7.034,8.168 C7.593,7.703 8.417,7.787 8.877,8.352 L16.499,17.744 L24.122,8.356 C24.582,7.791 25.406,7.707 25.965,8.172 C26.524,8.632 26.607,9.465 26.148,10.029 L26.148,10.029 Z"/>
</svg>